<?xml version="1.0" encoding="UTF-8" standalone="no"?>
<!-- Generator: Adobe Illustrator 16.0.0, SVG Export Plug-In . SVG Version: 6.00 Build 0)  -->

<svg
   xmlns:dc="http://purl.org/dc/elements/1.1/"
   xmlns:cc="http://creativecommons.org/ns#"
   xmlns:rdf="http://www.w3.org/1999/02/22-rdf-syntax-ns#"
   xmlns:svg="http://www.w3.org/2000/svg"
   xmlns="http://www.w3.org/2000/svg"
   xmlns:sodipodi="http://sodipodi.sourceforge.net/DTD/sodipodi-0.dtd"
   xmlns:inkscape="http://www.inkscape.org/namespaces/inkscape"
   version="1.1"
   id="Capa_1"
   x="0px"
   y="0px"
   width="588.52px"
   height="588.52px"
   viewBox="0 0 588.52 588.52"
   style="enable-background:new 0 0 588.52 588.52;"
   xml:space="preserve"
   sodipodi:docname="icon_minus.svg"
   inkscape:version="0.92.3 (2405546, 2018-03-11)"><metadata
   id="metadata957"><rdf:RDF><cc:Work
       rdf:about=""><dc:format>image/svg+xml</dc:format><dc:type
         rdf:resource="http://purl.org/dc/dcmitype/StillImage" /><dc:title></dc:title></cc:Work></rdf:RDF></metadata><defs
   id="defs955">
	

		
		
	
			
			
		</defs><sodipodi:namedview
   pagecolor="#ffffff"
   bordercolor="#666666"
   borderopacity="1"
   objecttolerance="10"
   gridtolerance="10"
   guidetolerance="10"
   inkscape:pageopacity="0"
   inkscape:pageshadow="2"
   inkscape:window-width="1920"
   inkscape:window-height="1011"
   id="namedview953"
   showgrid="false"
   inkscape:zoom="1.4765853"
   inkscape:cx="366.25336"
   inkscape:cy="306.38655"
   inkscape:window-x="0"
   inkscape:window-y="24"
   inkscape:window-maximized="1"
   inkscape:current-layer="Capa_1"
   showguides="true"
   inkscape:guide-bbox="true"><sodipodi:guide
     position="134.09316,294.59862"
     orientation="0,1"
     id="guide1554"
     inkscape:locked="false" /></sodipodi:namedview>
<g
   id="g910">
			<path
   d="m 86.541,501.98 c 26.971,26.971 58.385,48.148 93.368,62.945 36.23,15.324 74.704,23.094 114.352,23.094 39.648,0 78.121,-7.77 114.352,-23.094 34.982,-14.797 66.396,-35.975 93.369,-62.945 26.971,-26.973 48.148,-58.387 62.945,-93.369 15.324,-36.23 23.094,-74.703 23.094,-114.352 0,-39.647 -7.77,-78.121 -23.094,-114.352 C 550.13,144.924 528.952,113.51 501.982,86.539 475.009,59.567 443.595,38.389 408.613,23.592 372.381,8.27 333.908,0.5 294.26,0.5 254.613,0.5 216.139,8.27 179.908,23.594 144.925,38.39 113.512,59.569 86.54,86.541 59.568,113.512 38.39,144.926 23.593,179.909 8.27,216.139 0.5,254.612 0.5,294.26 c 0,39.648 7.77,78.121 23.094,114.352 14.797,34.982 35.975,66.396 62.947,93.368 z M 63.049,196.597 C 75.686,166.72 93.781,139.883 116.832,116.832 139.883,93.781 166.72,75.686 196.597,63.049 227.517,49.971 260.376,43.34 294.26,43.34 c 33.883,0 66.742,6.631 97.664,19.71 29.875,12.636 56.713,30.732 79.764,53.783 23.051,23.051 41.146,49.888 53.783,79.765 13.078,30.92 19.709,63.779 19.709,97.662 0,33.883 -6.631,66.742 -19.709,97.664 -12.637,29.875 -30.732,56.713 -53.783,79.764 -23.051,23.051 -49.889,41.146 -79.764,53.783 -30.922,13.078 -63.781,19.709 -97.664,19.709 -33.883,0 -66.742,-6.631 -97.663,-19.709 C 166.72,512.834 139.883,494.739 116.832,471.688 93.781,448.637 75.686,421.799 63.049,391.922 49.971,361.002 43.34,328.143 43.34,294.26 c 0,-33.884 6.631,-66.742 19.709,-97.663 z"
   id="path906"
   inkscape:connector-curvature="0" />
			<path
   d="m 294.26,588.52 c -39.716,0 -78.255,-7.783 -114.546,-23.133 C 144.671,550.565 113.204,529.351 86.188,502.334 59.171,475.316 37.957,443.849 23.134,408.806 7.783,372.514 0,333.975 0,294.26 0,254.545 7.783,216.007 23.133,179.714 37.955,144.671 59.17,113.204 86.187,86.188 113.204,59.17 144.67,37.956 179.713,23.134 216.006,7.783 254.545,0 294.26,0 c 39.715,0 78.254,7.783 114.546,23.133 35.043,14.822 66.511,36.037 93.528,63.054 27.016,27.016 48.229,58.482 63.053,93.526 15.35,36.292 23.133,74.831 23.133,114.546 0,39.715 -7.783,78.255 -23.133,114.546 -14.822,35.043 -36.036,66.511 -63.053,93.528 -27.018,27.017 -58.485,48.23 -93.528,63.052 -36.291,15.351 -74.83,23.135 -114.546,23.135 z M 294.26,1 C 254.68,1 216.272,8.757 180.103,24.054 145.179,38.825 113.819,59.968 86.894,86.894 59.969,113.819 38.826,145.179 24.054,180.103 8.757,216.272 1,254.68 1,294.26 c 0,39.58 7.757,77.988 23.054,114.157 14.772,34.923 35.914,66.283 62.84,93.21 26.925,26.925 58.285,48.066 93.209,62.838 36.167,15.298 74.576,23.055 114.157,23.055 39.581,0 77.989,-7.757 114.157,-23.055 34.923,-14.771 66.283,-35.913 93.21,-62.838 26.925,-26.927 48.066,-58.287 62.838,-93.21 15.298,-36.168 23.055,-74.576 23.055,-114.157 0,-39.581 -7.757,-77.989 -23.055,-114.157 C 549.694,145.178 528.551,113.818 501.627,86.894 474.7,59.968 443.34,38.826 408.417,24.054 372.248,8.757 333.84,1 294.26,1 Z m 0,544.68 c -33.952,0 -66.875,-6.645 -97.857,-19.748 C 166.467,513.27 139.577,495.138 116.48,472.041 93.384,448.945 75.253,422.055 62.59,392.116 49.484,361.135 42.84,328.211 42.84,294.26 c 0,-33.95 6.645,-66.874 19.749,-97.857 12.662,-29.936 30.793,-56.826 53.89,-79.923 23.097,-23.097 49.987,-41.228 79.923,-53.89 30.983,-13.104 63.907,-19.749 97.857,-19.749 33.951,0 66.875,6.645 97.858,19.75 29.937,12.662 56.826,30.793 79.923,53.89 23.098,23.098 41.229,49.988 53.891,79.923 13.104,30.982 19.748,63.906 19.748,97.857 0,33.951 -6.645,66.875 -19.748,97.858 -12.663,29.937 -30.794,56.827 -53.891,79.923 -23.096,23.097 -49.986,41.228 -79.923,53.89 -30.982,13.103 -63.906,19.748 -97.857,19.748 z m 0,-501.84 c -33.816,0 -66.609,6.618 -97.468,19.67 -29.817,12.612 -56.601,30.671 -79.606,53.676 -23.005,23.005 -41.065,49.789 -53.676,79.606 -13.052,30.859 -19.67,63.652 -19.67,97.468 0,33.816 6.618,66.609 19.67,97.468 12.613,29.818 30.672,56.603 53.676,79.606 23.006,23.006 49.789,41.064 79.606,53.676 30.858,13.052 63.651,19.67 97.468,19.67 33.816,0 66.609,-6.618 97.47,-19.67 29.816,-12.612 56.6,-30.671 79.604,-53.676 23.004,-23.005 41.063,-49.788 53.676,-79.604 13.052,-30.86 19.67,-63.653 19.67,-97.47 0,-33.817 -6.618,-66.609 -19.67,-97.467 -12.611,-29.816 -30.67,-56.6 -53.676,-79.606 C 448.329,94.182 421.546,76.123 391.73,63.511 360.869,50.458 328.076,43.84 294.26,43.84 Z"
   id="path908"
   inkscape:connector-curvature="0" />
		</g>
<g
   id="g922">
</g>
<g
   id="g924">
</g>
<g
   id="g926">
</g>
<g
   id="g928">
</g>
<g
   id="g930">
</g>
<g
   id="g932">
</g>
<g
   id="g934">
</g>
<g
   id="g936">
</g>
<g
   id="g938">
</g>
<g
   id="g940">
</g>
<g
   id="g942">
</g>
<g
   id="g944">
</g>
<g
   id="g946">
</g>
<g
   id="g948">
</g>
<g
   id="g950">
</g>
<path
   sodipodi:nodetypes="ccsccsc"
   inkscape:connector-curvature="0"
   id="path912-6"
   d="m 160.12803,314.66415 c 0,0 0.32897,0 265.555,0 11.83,0 21.42,-9.59 21.42,-21.42 0,-11.83 -9.59,-21.42 -21.42,-21.42 -265.555,0 -265.555,0 -265.555,0 -11.83,0 -21.42,9.59 -21.42,21.42 0,11.83 9.59,21.42 21.42,21.42 z" /></svg>