<?xml version="1.0" encoding="UTF-8" standalone="no"?>
<svg
   xmlns:dc="http://purl.org/dc/elements/1.1/"
   xmlns:cc="http://creativecommons.org/ns#"
   xmlns:rdf="http://www.w3.org/1999/02/22-rdf-syntax-ns#"
   xmlns:svg="http://www.w3.org/2000/svg"
   xmlns="http://www.w3.org/2000/svg"
   viewBox="0 0 124.48555 200"
   height="200"
   width="124.48555"
   xml:space="preserve"
   id="svg2"
   version="1.1"><metadata
     id="metadata8"><rdf:RDF><cc:Work
         rdf:about=""><dc:format>image/svg+xml</dc:format><dc:type
           rdf:resource="http://purl.org/dc/dcmitype/StillImage" /><dc:title></dc:title></cc:Work></rdf:RDF></metadata><defs
     id="defs6"><clipPath
       id="clipPath18"
       clipPathUnits="userSpaceOnUse"><path
         id="path16"
         d="M 0,581.103 H 368.504 V 0 H 0 Z" /></clipPath><clipPath
       id="clipPath238"
       clipPathUnits="userSpaceOnUse"><path
         id="path236"
         d="M 119.675,473.147 H 264.963 V 378.659 H 119.675 Z" /></clipPath><clipPath
       id="clipPath698"
       clipPathUnits="userSpaceOnUse"><path
         id="path696"
         d="M 14.2222,241.199 H 357.556 V 151.337 H 14.2222 Z" /></clipPath><clipPath
       id="clipPath822"
       clipPathUnits="userSpaceOnUse"><path
         id="path820"
         d="m 195.055,101.174 h 22.041 v -8.7912 h -22.041 z" /></clipPath></defs><g
     transform="matrix(1.3333333,0,0,-1.3333333,-18.24568,212.70985)"
     id="g10"><g
       transform="matrix(0.26602358,0,0,0.26602358,11.201865,8.6176655)"
       id="g12"><g
         clip-path="url(#clipPath18)"
         id="g14"><g
           transform="translate(48.4941,567.2983)"
           id="g20"><path
             id="path22"
             style="fill:#6cbce3;fill-opacity:1;fill-rule:nonzero;stroke:none"
             d="m 0,0 h 144.582 l -0.058,-99.448 1.37,-91.35 H 4.249 C -0.905,-142.632 0,-142.562 0,-130.422 Z" /></g><g
           transform="translate(190.5,567.2983)"
           id="g24"><path
             id="path26"
             style="fill:#6cbce3;fill-opacity:1;fill-rule:nonzero;stroke:none"
             d="m 0,0 -0.366,-190.798 138.088,-0.898 c 0,0 4.146,31.941 4.146,52.608 V 0 Z" /></g><g
           transform="translate(191.7461,467.8501)"
           id="g28"><path
             id="path30"
             style="fill:none;stroke:#001822;stroke-width:1;stroke-linecap:butt;stroke-linejoin:miter;stroke-miterlimit:4;stroke-dasharray:none;stroke-opacity:1"
             d="M 0,0 V 99.448" /></g><g
           transform="translate(52.5142,373.8535)"
           id="g32"><path
             id="path34"
             style="fill:#ffffff;fill-opacity:1;fill-rule:nonzero;stroke:none"
             d="m 0,0 c 0,0 22.724,-115.837 138.411,-159.275 0,0 118.716,42.296 136.825,159.046 z" /></g><g
           transform="translate(52.5142,373.8535)"
           id="g36"><path
             id="path38"
             style="fill:none;stroke:#000000;stroke-width:0.25;stroke-linecap:butt;stroke-linejoin:miter;stroke-miterlimit:4;stroke-dasharray:none;stroke-opacity:1"
             d="m 0,0 c 0,0 22.724,-115.837 138.411,-159.275 0,0 118.716,42.296 136.825,159.046 z" /></g><g
           transform="translate(53.625,373.9854)"
           id="g40"><path
             id="path42"
             style="fill:#96161a;fill-opacity:1;fill-rule:nonzero;stroke:none"
             d="M 0,0 H 6.577 V -15.758 H 3.198 C 3.198,-15.758 0,-9.363 0,0" /></g><g
           transform="translate(58.375,354.2285)"
           id="g44"><path
             id="path46"
             style="fill:#96161a;fill-opacity:1;fill-rule:nonzero;stroke:none"
             d="M 0,0 6.318,-16.783 H 24.437 V -0.125 Z" /></g><g
           transform="translate(64.541,374.2134)"
           id="g48"><path
             id="path50"
             style="fill:#96161a;fill-opacity:1;fill-rule:nonzero;stroke:none"
             d="M 0,0 V -16.214 H 38.596 V -0.229 Z" /></g><path
           id="path52"
           style="fill:#96161a;fill-opacity:1;fill-rule:nonzero;stroke:none"
           d="m 107.476,358.227 h 37.682 v 15.986 h -37.682 z" /><g
           transform="translate(87.3789,354.1162)"
           id="g54"><path
             id="path56"
             style="fill:#96161a;fill-opacity:1;fill-rule:nonzero;stroke:none"
             d="M 0,0 V -17.127 H 39.052 V -0.138 Z" /></g><g
           transform="translate(67.7383,332.3535)"
           id="g58"><path
             id="path60"
             style="fill:#96161a;fill-opacity:1;fill-rule:nonzero;stroke:none"
             d="M 0,0 V -1.673 L 7.236,-15.918 H 34.713 V 0.067 Z" /></g><g
           transform="translate(77.4229,312.5527)"
           id="g62"><path
             id="path64"
             style="fill:#96161a;fill-opacity:1;fill-rule:nonzero;stroke:none"
             d="m 0,0 4.339,-8.222 v 7.993 z" /></g><g
           transform="translate(106.5615,332.6494)"
           id="g66"><path
             id="path68"
             style="fill:#96161a;fill-opacity:1;fill-rule:nonzero;stroke:none"
             d="M 0,0 V -16.214 H 38.367 V -0.229 Z" /></g><g
           transform="translate(130.998,353.8882)"
           id="g70"><path
             id="path72"
             style="fill:#96161a;fill-opacity:1;fill-rule:nonzero;stroke:none"
             d="m 0,0 v -16.899 h 35.397 l -1.598,1.598 5.71,4.339 0.012,10.927 z" /></g><path
           id="path74"
           style="fill:#96161a;fill-opacity:1;fill-rule:nonzero;stroke:none"
           d="m 86.236,297.251 h 37.682 v 15.073 H 86.236 Z" /><g
           transform="translate(128.7139,312.3242)"
           id="g76"><path
             id="path78"
             style="fill:#96161a;fill-opacity:1;fill-rule:nonzero;stroke:none"
             d="m 0,0 v -15.53 h 36.54 l 2.398,2.399 v 5.595 2.284 l -6.64,-1.925 -2.837,6.035 2.226,1.37 z" /></g><g
           transform="translate(149.0391,332.6494)"
           id="g80"><path
             id="path82"
             style="fill:#96161a;fill-opacity:1;fill-rule:nonzero;stroke:none"
             d="m 0,0 v -15.986 h 15.073 v 3.425 l -6.394,2.864 1.598,6.728 7.308,-1.598 3.197,4.795 z" /></g><g
           transform="translate(90.2461,292.1362)"
           id="g84"><path
             id="path86"
             style="fill:#96161a;fill-opacity:1;fill-rule:nonzero;stroke:none"
             d="m 0,0 11.218,-14.435 1.444,-1.232 V 0.09 Z" /></g><path
           id="path88"
           style="fill:#96161a;fill-opacity:1;fill-rule:nonzero;stroke:none"
           d="m 107.704,275.783 h 38.138 v 16.215 h -38.138 z" /><g
           transform="translate(106.7358,271.6719)"
           id="g90"><path
             id="path92"
             style="fill:#96161a;fill-opacity:1;fill-rule:nonzero;stroke:none"
             d="m 0,0 16.041,-16.441 h 2.74 V 0 Z" /></g><g
           transform="translate(129.8555,271.6719)"
           id="g94"><path
             id="path96"
             style="fill:#96161a;fill-opacity:1;fill-rule:nonzero;stroke:none"
             d="M 0,0 V -16.441 H 38.367 V -0.227 Z" /></g><g
           transform="translate(128.0293,251.1191)"
           id="g98"><path
             id="path100"
             style="fill:#96161a;fill-opacity:1;fill-rule:nonzero;stroke:none"
             d="M 0,0 18.041,-13.531 V -0.229 Z" /></g><path
           id="path102"
           style="fill:#96161a;fill-opacity:1;fill-rule:nonzero;stroke:none"
           d="m 151.095,235.361 h 37.91 v 15.758 h -37.91 z" /><g
           transform="translate(151.0947,292.2261)"
           id="g104"><path
             id="path106"
             style="fill:#96161a;fill-opacity:1;fill-rule:nonzero;stroke:none"
             d="m 0,0 v -16.443 h 36.768 v 11.061 l -1.255,-2.266 -6.052,1.484 V 0 h -8.907 l -1.37,-1.371 -1.257,1.258 z" /></g><g
           transform="translate(156.0879,231.4414)"
           id="g108"><path
             id="path110"
             style="fill:#96161a;fill-opacity:1;fill-rule:nonzero;stroke:none"
             d="m 0,0 9.465,-5.484 -0.07,5.293 z" /></g><g
           transform="translate(169.8223,231.4785)"
           id="g112"><path
             id="path114"
             style="fill:#96161a;fill-opacity:1;fill-rule:nonzero;stroke:none"
             d="m 0,0 v -7.712 l 21.239,-9.188 16.9,7.765 V 0 Z" /></g><g
           transform="translate(212.0713,231.4785)"
           id="g116"><path
             id="path118"
             style="fill:#96161a;fill-opacity:1;fill-rule:nonzero;stroke:none"
             d="M 0,0 V -7.08 L 12.983,0.195 Z" /></g><g
           transform="translate(192.8877,250.6621)"
           id="g120"><path
             id="path122"
             style="fill:#96161a;fill-opacity:1;fill-rule:nonzero;stroke:none"
             d="M 0,0 V -14.617 H 37.454 V 0.457 Z" /></g><g
           transform="translate(172.334,271.2148)"
           id="g124"><path
             id="path126"
             style="fill:#96161a;fill-opacity:1;fill-rule:nonzero;stroke:none"
             d="M 0,0 V -15.986 H 38.824 V 0.457 Z" /></g><g
           transform="translate(215.957,271.6719)"
           id="g128"><path
             id="path130"
             style="fill:#96161a;fill-opacity:1;fill-rule:nonzero;stroke:none"
             d="M 0,0 V -16.215 H 38.139 V -0.068 Z" /></g><g
           transform="translate(234.8232,251.0303)"
           id="g132"><path
             id="path134"
             style="fill:#96161a;fill-opacity:1;fill-rule:nonzero;stroke:none"
             d="m 0,0 -0.062,-13.51 18.65,13.37 z" /></g><g
           transform="translate(258.4346,271.6719)"
           id="g136"><path
             id="path138"
             style="fill:#96161a;fill-opacity:1;fill-rule:nonzero;stroke:none"
             d="M 0,0 V -16.672 L 17.782,0.03 Z" /></g><g
           transform="translate(192.4355,291.3145)"
           id="g140"><path
             id="path142"
             style="fill:#96161a;fill-opacity:1;fill-rule:nonzero;stroke:none"
             d="m 0,0 h 2.283 l 3.197,-7.539 6.395,2.283 -1.599,6.624 h 10.23 l 1.417,-1.143 1.371,1.371 H 37.453 V -15.531 H 0.228 Z" /></g><path
           id="path144"
           style="fill:#96161a;fill-opacity:1;fill-rule:nonzero;stroke:none"
           d="m 233.999,275.783 h 38.823 v 16.67 h -38.823 z" /><g
           transform="translate(220.6035,312.5508)"
           id="g146"><path
             id="path148"
             style="fill:#96161a;fill-opacity:1;fill-rule:nonzero;stroke:none"
             d="M 0,0 4.717,-1.371 3.347,-7.08 h -7.308 l -3.883,-3.882 5.824,-5.824 h 31.63 v 16.557 z" /></g><g
           transform="translate(216.1816,327.395)"
           id="g150"><path
             id="path152"
             style="fill:#96161a;fill-opacity:1;fill-rule:nonzero;stroke:none"
             d="M 0,0 H 8.226 L 10.053,-5.024 2.056,-7.762 V -11.19 H 14.163 V 5.252 H -1.138 Z" /></g><path
           id="path154"
           style="fill:#96161a;fill-opacity:1;fill-rule:nonzero;stroke:none"
           d="m 234.685,315.976 h 38.595 v 16.671 h -38.595 z" /><path
           id="path156"
           style="fill:#96161a;fill-opacity:1;fill-rule:nonzero;stroke:none"
           d="m 254.781,295.651 h 38.823 v 16.9 h -38.823 z" /><g
           transform="translate(293.833,292.2251)"
           id="g158"><path
             id="path160"
             style="fill:#96161a;fill-opacity:1;fill-rule:nonzero;stroke:none"
             d="m 0,0 h -17.333 v -16.122 l 3.91,0.082 c 0,0 11.729,13.158 13.423,16.04" /></g><g
           transform="translate(297.9434,312.7788)"
           id="g162"><path
             id="path164"
             style="fill:#96161a;fill-opacity:1;fill-rule:nonzero;stroke:none"
             d="m 0,0 v -14.423 c 0,0 7.521,10.498 8.893,14.38 z" /></g><g
           transform="translate(277.8457,332.8765)"
           id="g166"><path
             id="path168"
             style="fill:#96161a;fill-opacity:1;fill-rule:nonzero;stroke:none"
             d="m 0,0 v -16.214 h 31.119 l 3.366,6.723 v 9.035 z" /></g><g
           transform="translate(323.293,353.4307)"
           id="g170"><path
             id="path172"
             style="fill:#96161a;fill-opacity:1;fill-rule:nonzero;stroke:none"
             d="m 0,0 h -19.868 v -16.214 h 14.786 c 0,0 1.2,2.511 5.082,16.214" /></g><path
           id="path174"
           style="fill:#96161a;fill-opacity:1;fill-rule:nonzero;stroke:none"
           d="m 260.49,337.216 h 38.367 v 16.671 H 260.49 Z" /><g
           transform="translate(255.4658,353.8877)"
           id="g176"><path
             id="path178"
             style="fill:#96161a;fill-opacity:1;fill-rule:nonzero;stroke:none"
             d="m 0,0 v -16.671 h -36.312 l -2.023,2.023 L -38.366,0 Z" /></g><g
           transform="translate(213.2168,353.7402)"
           id="g180"><path
             id="path182"
             style="fill:#96161a;fill-opacity:1;fill-rule:nonzero;stroke:none"
             d="m 0,0 v -11.957 l -5.484,-4.566 -4.335,3.881 v 6.395 l -5.482,2.055 -3.429,-7.764 -5.477,0.685 -2.741,7.536 -6.622,-1.827 1.37,-7.308 -5.029,-3.426 -1.137,1.138 v 15.077 z" /></g><g
           transform="translate(328.7744,373.7568)"
           id="g184"><path
             id="path186"
             style="fill:#96161a;fill-opacity:1;fill-rule:nonzero;stroke:none"
             d="M 0,0 C 0,0 -3.882,-14.388 -3.882,-15.529 H -8.678 V 0 Z" /></g><g
           transform="translate(315.3008,373.7568)"
           id="g188"><path
             id="path190"
             style="fill:#96161a;fill-opacity:1;fill-rule:nonzero;stroke:none"
             d="M 0,0 V -15.757 H -38.367 V 0.229 Z" /></g><g
           transform="translate(272.8232,373.7568)"
           id="g192"><path
             id="path194"
             style="fill:#96161a;fill-opacity:1;fill-rule:nonzero;stroke:none"
             d="M 0,0 V -15.757 H -37.453 V 0.229 Z" /></g><g
           transform="translate(230.3457,373.7568)"
           id="g196"><path
             id="path198"
             style="fill:#96161a;fill-opacity:1;fill-rule:nonzero;stroke:none"
             d="M 0,0 V -15.757 H -36.769 V 0.457 Z" /></g><g
           transform="translate(150.4102,373.7568)"
           id="g200"><path
             id="path202"
             style="fill:#96161a;fill-opacity:1;fill-rule:nonzero;stroke:none"
             d="M 0,0 V -15.986 H 38.367 V 0.457 Z" /></g><g
           transform="translate(189.0098,342.4687)"
           id="g204"><path
             id="path206"
             style="fill:none;stroke:#000000;stroke-width:0.25;stroke-linecap:butt;stroke-linejoin:miter;stroke-miterlimit:4;stroke-dasharray:none;stroke-opacity:1"
             d="m 0,0 -2.741,7.537 -6.622,-1.828 1.37,-7.308 -5.028,-3.425 -5.482,5.481 -5.71,-4.338 5.025,-5.71 -3.198,-4.796 -7.307,1.599 -1.364,-6.624 6.16,-2.968 v -5.252 l -5.938,-3.654 2.837,-6.035 6.641,1.924 2.455,-4.739 -4.854,-5.538 5.025,-5.939 5.253,5.254 5.024,-2.969 v -7.078 l 6.052,-1.485 2.854,6.737 h 5.257 l 3.197,-7.539 6.395,2.283 -1.599,6.623 4.568,4.568 7.079,-5.711 4.225,4.226 -5.824,5.824 3.883,3.882 h 7.307 l 1.371,5.709 -7.083,2.059 v 6.394 l 7.997,2.738 -1.828,5.024 h -8.225 l -2.055,3.885 4.112,6.853 -5.022,3.651 -5.484,-4.566 -4.335,3.881 V 5.024 L 8.906,7.08 5.477,-0.684 Z" /></g><g
           transform="translate(197.8174,333.6523)"
           id="g208"><path
             id="path210"
             style="fill:none;stroke:#000000;stroke-width:0.25;stroke-linecap:butt;stroke-linejoin:miter;stroke-miterlimit:4;stroke-dasharray:none;stroke-opacity:1"
             d="m 0,0 c 0,0 -5.938,14.159 -13.018,-1.599 0,0 -4.567,-20.78 0,-30.83 0,0 3.882,-10.505 9.592,-6.622 0,0 7.079,4.795 5.938,27.404 C 2.512,-11.647 0,1.371 0,0 Z" /></g><g
           transform="translate(209.165,310.5752)"
           id="g212"><path
             id="path214"
             style="fill:none;stroke:#000000;stroke-width:0.25;stroke-linecap:butt;stroke-linejoin:miter;stroke-miterlimit:4;stroke-dasharray:none;stroke-opacity:1"
             d="m 0,0 c 0,0 14.159,5.938 -1.599,13.018 0,0 -20.78,4.567 -30.83,10e-4 0,0 -10.506,-3.882 -6.623,-9.592 0,0 4.795,-7.079 27.405,-5.938 C -11.647,-2.511 1.371,0 0,0 Z" /></g><g
           transform="translate(199.7822,299.5698)"
           id="g216"><path
             id="path218"
             style="fill:none;stroke:#000000;stroke-width:0.25;stroke-linecap:butt;stroke-linejoin:miter;stroke-miterlimit:4;stroke-dasharray:none;stroke-opacity:1"
             d="m 0,0 c 0,0 14.471,-5.137 7.578,10.705 0,0 -12.297,17.362 -22.804,20.748 0,0 -10.382,4.198 -11.353,-2.639 0,0 -1.218,-8.462 16.273,-22.834 0,0 11.321,-6.903 10.306,-5.98 z" /></g><g
           transform="translate(207.0449,324.5659)"
           id="g220"><path
             id="path222"
             style="fill:none;stroke:#000000;stroke-width:0.25;stroke-linecap:butt;stroke-linejoin:miter;stroke-miterlimit:4;stroke-dasharray:none;stroke-opacity:1"
             d="m 0,0 c 0,0 5.464,14.35 -10.529,7.819 0,0 -17.638,-11.898 -21.261,-22.326 0,0 -4.434,-10.284 2.378,-11.41 0,0 8.433,-1.41 23.199,15.75 0,0 7.159,11.161 6.213,10.167 z" /></g><g
           transform="translate(130.0859,468.0791)"
           id="g224"><path
             id="path226"
             style="fill:#001822;fill-opacity:1;fill-rule:nonzero;stroke:none"
             d="m 0,0 h -11.874 l -8.907,-90.438 77.876,-1.141 c 0,0 3.879,8.907 9.361,0 l 80.392,0.913 -12.107,89.98 h -15.758 l -5.823,1.713 c 0,0 -19.53,10.619 -51.5,-1.256 h -2.054 c 0,0 -33.802,12.561 -55.496,0.229 L 0.913,0.913 Z" /></g><g
           transform="translate(130.0859,468.0791)"
           id="g228"><path
             id="path230"
             style="fill:none;stroke:#001822;stroke-width:0.25;stroke-linecap:butt;stroke-linejoin:miter;stroke-miterlimit:4;stroke-dasharray:none;stroke-opacity:1"
             d="m 0,0 h -11.874 l -8.907,-90.438 77.876,-1.141 c 0,0 3.879,8.907 9.361,0 l 80.392,0.913 -12.107,89.98 h -15.758 l -5.823,1.713 c 0,0 -19.53,10.619 -51.5,-1.256 h -2.054 c 0,0 -33.802,12.561 -55.496,0.229 L 0.913,0.913 Z" /></g><g
           id="g232"><g
             id="g234" /><g
             id="g250"><g
               style="opacity:0.69999701"
               id="g248"
               clip-path="url(#clipPath238)"><g
                 id="g242"
                 transform="translate(191.7461,466.2515)"><path
                   id="path240"
                   style="fill:#f1f1f2;fill-opacity:1;fill-rule:nonzero;stroke:none"
                   d="m 0,0 c 0,0 -33.114,13.931 -57.55,1.827 l -3.197,0.914 -3.769,-3.768 h -1.713 l -5.709,-85.526 65.315,-0.914 c 0,0 5.71,9.363 11.419,0 l 68.285,0.914 -6.852,84.041 h -2.283 l -4.339,1.37 H 57.78 L 56.41,0.229 H 54.126 L 51.5,2.854 H 48.417 C 48.417,2.854 28.316,12.332 0,0" /></g><g
                 id="g246"
                 transform="translate(191.7461,466.2515)"><path
                   id="path244"
                   style="fill:none;stroke:#000000;stroke-width:0.25;stroke-linecap:butt;stroke-linejoin:miter;stroke-miterlimit:4;stroke-dasharray:none;stroke-opacity:1"
                   d="m 0,0 c 0,0 -33.114,13.931 -57.55,1.827 l -3.197,0.914 -3.769,-3.768 h -1.713 l -5.709,-85.526 65.315,-0.914 c 0,0 5.71,9.363 11.419,0 l 68.285,0.914 -6.852,84.041 h -2.283 l -4.339,1.37 H 57.78 L 56.41,0.229 H 54.126 L 51.5,2.854 H 48.417 C 48.417,2.854 28.316,12.332 0,0 Z" /></g></g></g></g><g
           transform="translate(191.291,463.9678)"
           id="g252"><path
             id="path254"
             style="fill:none;stroke:#000000;stroke-width:0.25;stroke-linecap:butt;stroke-linejoin:miter;stroke-miterlimit:4;stroke-dasharray:none;stroke-opacity:1"
             d="m 0,0 c 0,0 19.642,14.616 49.786,2.969 l 2.969,-72.851 c 0,0 -28.547,12.104 -52.069,-7.765 z" /></g><g
           transform="translate(189.6924,463.9678)"
           id="g256"><path
             id="path258"
             style="fill:none;stroke:#000000;stroke-width:0.25;stroke-linecap:butt;stroke-linejoin:miter;stroke-miterlimit:4;stroke-dasharray:none;stroke-opacity:1"
             d="m 0,0 v -76.733 c 0,0 -22.152,16.442 -48.644,8.221 V 5.024 c 0,0 21.01,9.592 48.644,-5.024 z" /></g><g
           transform="translate(244.0459,394.0854)"
           id="g260"><path
             id="path262"
             style="fill:none;stroke:#000000;stroke-width:0.25;stroke-linecap:butt;stroke-linejoin:miter;stroke-miterlimit:4;stroke-dasharray:none;stroke-opacity:1"
             d="M 0,0 3.882,-3.414 1.826,70.351 5.48,69.894 V -4.099 l 3.198,-1.142 -0.647,74.907 1.561,-2.056 1.826,-74.678 3.997,-3.997 -4.682,78.676" /></g><g
           transform="translate(138.9941,467.1763)"
           id="g264"><path
             id="path266"
             style="fill:none;stroke:#000000;stroke-width:0.25;stroke-linecap:butt;stroke-linejoin:miter;stroke-miterlimit:4;stroke-dasharray:none;stroke-opacity:1"
             d="m 0,0 -2.056,-73.764 h -1.827 l 1.827,73.536 -1.484,-1.484 -2.626,-73.651 -1.713,-1.713 1.484,75.706 -2.513,1.142 -2.282,-78.332 -3.769,-3.769 4.682,78.675" /></g><g
           transform="translate(189.0078,386.0923)"
           id="g268"><path
             id="path270"
             style="fill:none;stroke:#000000;stroke-width:0.25;stroke-linecap:butt;stroke-linejoin:miter;stroke-miterlimit:4;stroke-dasharray:none;stroke-opacity:1"
             d="m 0,0 c 0,0 -22.837,14.159 -37.225,9.592 0,0 16.9,4.111 35.626,-11.419 L -2.74,-2.969 c 0,0 -20.578,17.807 -50.498,7.932 -2.225,-0.734 -4.501,-1.621 -6.825,-2.679 0,0 30.832,13.474 55.496,-6.166 l -0.229,-1.599 c 0,0 -0.223,0.166 -0.654,0.454 -0.348,0.233 -0.831,0.545 -1.444,0.914 -5.771,3.482 -22.984,12.064 -45.86,7.082 0,0 18.732,4.906 43.193,-7.979 0.293,-0.155 0.587,-0.311 0.882,-0.471 0,0 -31.514,12.789 -47.729,6.166 0,0 27.632,1.827 44.304,-6.622 l -51.84,2.512 c 0,0 9.251,5.252 35.169,1.37" /></g><g
           transform="translate(192.749,386.3262)"
           id="g272"><path
             id="path274"
             style="fill:none;stroke:#000000;stroke-width:0.25;stroke-linecap:butt;stroke-linejoin:miter;stroke-miterlimit:4;stroke-dasharray:none;stroke-opacity:1"
             d="m 0,0 c 0,0 22.787,13.163 37.144,8.917 0,0 -16.863,3.822 -35.547,-10.615 L 2.735,-2.76 c 0,0 20.532,16.554 50.388,7.375 2.22,-0.683 4.49,-1.508 6.809,-2.492 0,0 -30.765,12.527 -55.374,-5.732 l 0.228,-1.487 c 0,0 0.223,0.154 0.652,0.423 0.348,0.216 0.83,0.506 1.44,0.85 5.761,3.236 22.935,11.214 45.762,6.583 0,0 -18.691,4.561 -43.102,-7.418 -0.29,-0.143 -0.584,-0.289 -0.877,-0.438 0,0 31.444,11.889 47.624,5.733 0,0 -27.571,1.698 -44.208,-6.157 l 51.729,2.335 c 0,0 -9.232,4.884 -35.093,1.274" /></g><g
           transform="translate(200.9824,464.2896)"
           id="g276"><path
             id="path278"
             style="fill:none;stroke:#000000;stroke-width:0.25;stroke-linecap:butt;stroke-linejoin:miter;stroke-miterlimit:4;stroke-dasharray:none;stroke-opacity:1"
             d="m 0,0 c 0,0 7.93,2.171 17.354,2.326 0.977,0.016 1.97,0.01 2.972,-0.022 C 24.693,2.165 29.23,1.526 33.343,0" /></g><g
           transform="translate(148.8145,463.7393)"
           id="g280"><path
             id="path282"
             style="fill:none;stroke:#000000;stroke-width:0.25;stroke-linecap:butt;stroke-linejoin:miter;stroke-miterlimit:4;stroke-dasharray:none;stroke-opacity:1"
             d="M 0,0 C 0,0 10.504,3.654 31.515,0" /></g><g
           transform="translate(148.3574,458.2583)"
           id="g284"><path
             id="path286"
             style="fill:none;stroke:#000000;stroke-width:0.25;stroke-linecap:butt;stroke-linejoin:miter;stroke-miterlimit:4;stroke-dasharray:none;stroke-opacity:1"
             d="M 0,0 C 0,0 5.709,2.969 32.657,0" /></g><g
           transform="translate(149.2705,454.1475)"
           id="g288"><path
             id="path290"
             style="fill:none;stroke:#000000;stroke-width:0.25;stroke-linecap:butt;stroke-linejoin:miter;stroke-miterlimit:4;stroke-dasharray:none;stroke-opacity:1"
             d="M 0,0 C 0,0 13.931,3.197 29.688,0" /></g><g
           transform="translate(149.499,449.1235)"
           id="g292"><path
             id="path294"
             style="fill:none;stroke:#000000;stroke-width:0.25;stroke-linecap:butt;stroke-linejoin:miter;stroke-miterlimit:4;stroke-dasharray:none;stroke-opacity:1"
             d="M 0,0 C 0,0 10.962,2.969 29.688,0" /></g><g
           transform="translate(149.042,444.5562)"
           id="g296"><path
             id="path298"
             style="fill:none;stroke:#000000;stroke-width:0.25;stroke-linecap:butt;stroke-linejoin:miter;stroke-miterlimit:4;stroke-dasharray:none;stroke-opacity:1"
             d="M 0,0 C 0,0 13.245,3.197 31.287,0" /></g><g
           transform="translate(148.5859,439.5317)"
           id="g300"><path
             id="path302"
             style="fill:none;stroke:#000000;stroke-width:0.25;stroke-linecap:butt;stroke-linejoin:miter;stroke-miterlimit:4;stroke-dasharray:none;stroke-opacity:1"
             d="M 0,0 C 0,0 10.506,3.882 32.886,0" /></g><g
           transform="translate(148.8145,435.6494)"
           id="g304"><path
             id="path306"
             style="fill:none;stroke:#000000;stroke-width:0.25;stroke-linecap:butt;stroke-linejoin:miter;stroke-miterlimit:4;stroke-dasharray:none;stroke-opacity:1"
             d="M 0,0 C 0,0 10.962,5.937 32.2,0" /></g><g
           transform="translate(149.2705,431.7671)"
           id="g308"><path
             id="path310"
             style="fill:none;stroke:#000000;stroke-width:0.25;stroke-linecap:butt;stroke-linejoin:miter;stroke-miterlimit:4;stroke-dasharray:none;stroke-opacity:1"
             d="M 0,0 C 0,0 9.135,4.796 31.059,0" /></g><g
           transform="translate(149.2705,426.2861)"
           id="g312"><path
             id="path314"
             style="fill:none;stroke:#000000;stroke-width:0.25;stroke-linecap:butt;stroke-linejoin:miter;stroke-miterlimit:4;stroke-dasharray:none;stroke-opacity:1"
             d="M 0,0 C 0,0 7.309,5.252 29.232,0" /></g><g
           transform="translate(149.2705,421.2617)"
           id="g316"><path
             id="path318"
             style="fill:none;stroke:#000000;stroke-width:0.25;stroke-linecap:butt;stroke-linejoin:miter;stroke-miterlimit:4;stroke-dasharray:none;stroke-opacity:1"
             d="M 0,0 C 0,0 8.679,4.11 30.603,0" /></g><g
           transform="translate(148.8145,415.0957)"
           id="g320"><path
             id="path322"
             style="fill:none;stroke:#000000;stroke-width:0.25;stroke-linecap:butt;stroke-linejoin:miter;stroke-miterlimit:4;stroke-dasharray:none;stroke-opacity:1"
             d="M 0,0 C 0,0 4.109,4.796 30.145,0" /></g><g
           transform="translate(149.499,411.4419)"
           id="g324"><path
             id="path326"
             style="fill:none;stroke:#000000;stroke-width:0.25;stroke-linecap:butt;stroke-linejoin:miter;stroke-miterlimit:4;stroke-dasharray:none;stroke-opacity:1"
             d="M 0,0 C 0,0 9.82,4.795 29.917,-1.142" /></g><g
           transform="translate(149.499,407.5596)"
           id="g328"><path
             id="path330"
             style="fill:none;stroke:#000000;stroke-width:0.25;stroke-linecap:butt;stroke-linejoin:miter;stroke-miterlimit:4;stroke-dasharray:none;stroke-opacity:1"
             d="M 0,0 C 0,0 14.288,3.431 28.318,-1.599" /></g><g
           transform="translate(149.042,403.2202)"
           id="g332"><path
             id="path334"
             style="fill:none;stroke:#000000;stroke-width:0.25;stroke-linecap:butt;stroke-linejoin:miter;stroke-miterlimit:4;stroke-dasharray:none;stroke-opacity:1"
             d="M 0,0 C 0,0 15.987,2.513 27.634,-3.197" /></g><g
           transform="translate(202.71,460.3135)"
           id="g336"><path
             id="path338"
             style="fill:none;stroke:#000000;stroke-width:0.25;stroke-linecap:butt;stroke-linejoin:miter;stroke-miterlimit:4;stroke-dasharray:none;stroke-opacity:1"
             d="M 0,0 C 0,0 10.636,4.554 24.664,1.599" /></g><g
           transform="translate(203.167,455.2896)"
           id="g340"><path
             id="path342"
             style="fill:none;stroke:#000000;stroke-width:0.25;stroke-linecap:butt;stroke-linejoin:miter;stroke-miterlimit:4;stroke-dasharray:none;stroke-opacity:1"
             d="M 0,0 C 0,0 11.189,5.709 28.774,1.37" /></g><g
           transform="translate(203.3955,450.4937)"
           id="g344"><path
             id="path346"
             style="fill:none;stroke:#000000;stroke-width:0.25;stroke-linecap:butt;stroke-linejoin:miter;stroke-miterlimit:4;stroke-dasharray:none;stroke-opacity:1"
             d="M 0,0 C 0,0 8.265,5.474 28.546,0.914" /></g><g
           transform="translate(204.3086,446.3828)"
           id="g348"><path
             id="path350"
             style="fill:none;stroke:#000000;stroke-width:0.25;stroke-linecap:butt;stroke-linejoin:miter;stroke-miterlimit:4;stroke-dasharray:none;stroke-opacity:1"
             d="M 0,0 C 0,0 5.03,5.713 26.491,0.914" /></g><g
           transform="translate(203.623,441.1304)"
           id="g352"><path
             id="path354"
             style="fill:none;stroke:#000000;stroke-width:0.25;stroke-linecap:butt;stroke-linejoin:miter;stroke-miterlimit:4;stroke-dasharray:none;stroke-opacity:1"
             d="M 0,0 C 0,0 6.853,6.166 23.295,2.055" /></g><g
           transform="translate(203.167,435.4209)"
           id="g356"><path
             id="path358"
             style="fill:none;stroke:#000000;stroke-width:0.25;stroke-linecap:butt;stroke-linejoin:miter;stroke-miterlimit:4;stroke-dasharray:none;stroke-opacity:1"
             d="M 0,0 C 0,0 5.597,6.624 27.404,0" /></g><g
           transform="translate(203.3955,430.1685)"
           id="g360"><path
             id="path362"
             style="fill:none;stroke:#000000;stroke-width:0.25;stroke-linecap:butt;stroke-linejoin:miter;stroke-miterlimit:4;stroke-dasharray:none;stroke-opacity:1"
             d="M 0,0 C 0,0 1.451,5.7 26.263,1.599" /></g><g
           transform="translate(203.167,425.6011)"
           id="g364"><path
             id="path366"
             style="fill:none;stroke:#000000;stroke-width:0.25;stroke-linecap:butt;stroke-linejoin:miter;stroke-miterlimit:4;stroke-dasharray:none;stroke-opacity:1"
             d="M 0,0 C 0,0 2.739,6.166 23.979,1.599" /></g><g
           transform="translate(203.167,421.2617)"
           id="g368"><path
             id="path370"
             style="fill:none;stroke:#000000;stroke-width:0.25;stroke-linecap:butt;stroke-linejoin:miter;stroke-miterlimit:4;stroke-dasharray:none;stroke-opacity:1"
             d="M 0,0 C 0,0 10.048,6.003 29.688,0" /></g><g
           transform="translate(203.623,416.4663)"
           id="g372"><path
             id="path374"
             style="fill:none;stroke:#000000;stroke-width:0.25;stroke-linecap:butt;stroke-linejoin:miter;stroke-miterlimit:4;stroke-dasharray:none;stroke-opacity:1"
             d="M 0,0 C 0,0 0.229,6.852 27.862,0" /></g><g
           transform="translate(203.3955,411.8984)"
           id="g376"><path
             id="path378"
             style="fill:none;stroke:#000000;stroke-width:0.25;stroke-linecap:butt;stroke-linejoin:miter;stroke-miterlimit:4;stroke-dasharray:none;stroke-opacity:1"
             d="M 0,0 C 0,0 9.896,5.267 26.947,1.599" /></g><g
           transform="translate(203.623,407.5596)"
           id="g380"><path
             id="path382"
             style="fill:none;stroke:#000000;stroke-width:0.25;stroke-linecap:butt;stroke-linejoin:miter;stroke-miterlimit:4;stroke-dasharray:none;stroke-opacity:1"
             d="M 0,0 C 0,0 7.668,7.081 28.318,1.827" /></g><g
           transform="translate(203.167,401.8501)"
           id="g384"><path
             id="path386"
             style="fill:none;stroke:#000000;stroke-width:0.25;stroke-linecap:butt;stroke-linejoin:miter;stroke-miterlimit:4;stroke-dasharray:none;stroke-opacity:1"
             d="M 0,0 C 0,0 11.407,9.14 31.743,1.599" /></g><g
           transform="translate(61.123,558.5576)"
           id="g388"><path
             id="path390"
             style="fill:#96161a;fill-opacity:1;fill-rule:nonzero;stroke:none"
             d="m 0,0 c 0,0 -5.17,-8.304 10.968,-24.442 0,0 -9.715,-13.475 -3.761,-13.475 h 8.461 c 2.507,0 5.641,-1.566 5.641,-7.207 0,0 0.94,-12.848 2.82,-20.995 0,0 -6.268,-8.774 4.7,-10.341 0,0 11.751,-4.231 17.861,1.88 0,0 5.171,3.29 0,8.461 0,0 1.568,15.041 3.761,23.815 0,0 -0.626,5.327 5.641,3.447 h 6.893 c 0,0 4.702,-0.94 1.254,5.641 l -4.387,7.207 c 0,0 12.221,11.594 12.221,26.009 L 54.055,-18.018 c 0,0 -3.917,-2.35 -9.244,0 0,0 -8.674,4.367 -22.249,0 0,0 -3.761,-3.604 -10.028,2.664 0,0 -7.519,4.073 -9.087,9.4 C 1.88,-0.626 0,0 0,0" /></g><g
           transform="translate(85.667,526.9697)"
           id="g392"><path
             id="path394"
             style="fill:#001822;fill-opacity:1;fill-rule:nonzero;stroke:none"
             d="m 0,0 c 0,0 -2.538,-2.09 1.791,-3.135 0,0 2.538,-0.448 4.18,-2.09 0,0 4.179,-2.836 2.09,0 0,0 -3.433,4.329 -8.061,5.225" /></g><g
           transform="translate(85.667,526.9697)"
           id="g396"><path
             id="path398"
             style="fill:none;stroke:#000000;stroke-width:0.25;stroke-linecap:butt;stroke-linejoin:miter;stroke-miterlimit:4;stroke-dasharray:none;stroke-opacity:1"
             d="m 0,0 c 0,0 -2.538,-2.09 1.791,-3.135 0,0 2.538,-0.448 4.18,-2.09 0,0 4.179,-2.836 2.09,0 0,0 -3.433,4.329 -8.061,5.225 z" /></g><g
           transform="translate(107.6094,527.5669)"
           id="g400"><path
             id="path402"
             style="fill:#001822;fill-opacity:1;fill-rule:nonzero;stroke:none"
             d="m 0,0 c 0,0 -2.388,-3.881 -3.881,-3.881 v -2.836 l 4.328,4.328 c 0,0 -0.298,0 1.792,0.597 0,0 2.314,-0.224 1.045,1.045 C 2.016,0.522 0,0 0,0" /></g><g
           transform="translate(107.6094,527.5669)"
           id="g404"><path
             id="path406"
             style="fill:none;stroke:#000000;stroke-width:0.25;stroke-linecap:butt;stroke-linejoin:miter;stroke-miterlimit:4;stroke-dasharray:none;stroke-opacity:1"
             d="m 0,0 c 0,0 -2.388,-3.881 -3.881,-3.881 v -2.836 l 4.328,4.328 c 0,0 -0.298,0 1.792,0.597 0,0 2.314,-0.224 1.045,1.045 C 2.016,0.522 0,0 0,0 Z" /></g><g
           transform="translate(84.7715,521.2974)"
           id="g408"><path
             id="path410"
             style="fill:#ffffff;fill-opacity:1;fill-rule:nonzero;stroke:none"
             d="m 0,0 c 0,0 1.643,2.538 4.18,0 0,0 3.059,-1.791 3.059,-3.06 0,0 0.224,-2.164 1.269,-3.209 1.045,-1.045 0.149,-1.94 -0.746,-1.045 -0.896,0.896 -2.241,1.642 -3.434,1.642 -1.193,0 -2.985,0.17 -2.985,3.433 0,0 0.747,1.045 -1.343,2.239" /></g><g
           transform="translate(84.7715,521.2974)"
           id="g412"><path
             id="path414"
             style="fill:none;stroke:#000000;stroke-width:0.25;stroke-linecap:butt;stroke-linejoin:miter;stroke-miterlimit:4;stroke-dasharray:none;stroke-opacity:1"
             d="m 0,0 c 0,0 1.643,2.538 4.18,0 0,0 3.059,-1.791 3.059,-3.06 0,0 0.224,-2.164 1.269,-3.209 1.045,-1.045 0.149,-1.94 -0.746,-1.045 -0.896,0.896 -2.241,1.642 -3.434,1.642 -1.193,0 -2.985,0.17 -2.985,3.433 0,0 0.747,1.045 -1.343,2.239 z" /></g><g
           transform="translate(109.4004,522.9395)"
           id="g416"><path
             id="path418"
             style="fill:#ffffff;fill-opacity:1;fill-rule:nonzero;stroke:none"
             d="m 0,0 c 0,0 -5.225,-3.732 -5.225,-6.568 0,0 0.151,-3.135 0.598,-3.582 0.447,-0.448 0,0.896 1.791,0.896 0,0 3.284,1.791 3.284,5.224 l 1.045,3.134 c 0,0 0.523,2.911 -1.493,0.896" /></g><g
           transform="translate(109.4004,522.9395)"
           id="g420"><path
             id="path422"
             style="fill:none;stroke:#000000;stroke-width:0.25;stroke-linecap:butt;stroke-linejoin:miter;stroke-miterlimit:4;stroke-dasharray:none;stroke-opacity:1"
             d="m 0,0 c 0,0 -5.225,-3.732 -5.225,-6.568 0,0 0.151,-3.135 0.598,-3.582 0.447,-0.448 0,0.896 1.791,0.896 0,0 3.284,1.791 3.284,5.224 l 1.045,3.134 c 0,0 0.523,2.911 -1.493,0.896 z" /></g><g
           transform="translate(87.5322,520.4766)"
           id="g424"><path
             id="path426"
             style="fill:#001822;fill-opacity:1;fill-rule:nonzero;stroke:none"
             d="m 0,0 c 0,0 2.389,-0.747 2.389,-2.389 0,0 -1.118,-3.579 -3.227,-1.471 0,0 -1.807,3.86 0.838,3.86" /></g><g
           transform="translate(87.5322,520.4766)"
           id="g428"><path
             id="path430"
             style="fill:none;stroke:#000000;stroke-width:0.25;stroke-linecap:butt;stroke-linejoin:miter;stroke-miterlimit:4;stroke-dasharray:none;stroke-opacity:1"
             d="m 0,0 c 0,0 2.389,-0.747 2.389,-2.389 0,0 -1.118,-3.579 -3.227,-1.471 0,0 -1.807,3.86 0.838,3.86 z" /></g><g
           transform="translate(92.832,489.5029)"
           id="g432"><path
             id="path434"
             style="fill:#ffffff;fill-opacity:1;fill-rule:nonzero;stroke:none"
             d="m 0,0 c 0,0 -2.688,0 -2.688,-0.746 0,-0.747 -1.492,-0.896 1.045,-3.433 0,0 1.643,-1.045 2.688,0 0,0 3.434,1.045 1.717,1.717 C 1.045,-1.791 0,0 0,0" /></g><g
           transform="translate(92.832,489.5029)"
           id="g436"><path
             id="path438"
             style="fill:none;stroke:#000000;stroke-width:0.25;stroke-linecap:butt;stroke-linejoin:miter;stroke-miterlimit:4;stroke-dasharray:none;stroke-opacity:1"
             d="m 0,0 c 0,0 -2.688,0 -2.688,-0.746 0,-0.747 -1.492,-0.896 1.045,-3.433 0,0 1.643,-1.045 2.688,0 0,0 3.434,1.045 1.717,1.717 C 1.045,-1.791 0,0 0,0 Z" /></g><g
           transform="translate(105.3701,488.6074)"
           id="g440"><path
             id="path442"
             style="fill:#ffffff;fill-opacity:1;fill-rule:nonzero;stroke:none"
             d="m 0,0 c 0,0 -2.165,3.806 -2.985,0 0,0 -3.209,-2.761 -2.09,-3.881 1.119,-1.119 1.64,-0.598 2.91,0.672 l -1.27,-1.27 2.017,2.017 c 0,0 2.836,0.074 1.418,2.462" /></g><g
           transform="translate(105.3701,488.6074)"
           id="g444"><path
             id="path446"
             style="fill:none;stroke:#000000;stroke-width:0.25;stroke-linecap:butt;stroke-linejoin:miter;stroke-miterlimit:4;stroke-dasharray:none;stroke-opacity:1"
             d="m 0,0 c 0,0 -2.165,3.806 -2.985,0 0,0 -3.209,-2.761 -2.09,-3.881 1.119,-1.119 1.64,-0.598 2.91,0.672 l -1.27,-1.27 2.017,2.017 c 0,0 2.836,0.074 1.418,2.462 z" /></g><g
           transform="translate(93.877,489.5029)"
           id="g448"><path
             id="path450"
             style="fill:#001822;fill-opacity:1;fill-rule:nonzero;stroke:none"
             d="m 0,0 c 0,0 -2.537,0 -2.537,-2.538 0,0 -0.15,-4.328 2.537,-1.641 C 0,-4.179 1.643,0 0,0" /></g><g
           transform="translate(93.877,489.5029)"
           id="g452"><path
             id="path454"
             style="fill:none;stroke:#000000;stroke-width:0.25;stroke-linecap:butt;stroke-linejoin:miter;stroke-miterlimit:4;stroke-dasharray:none;stroke-opacity:1"
             d="m 0,0 c 0,0 -2.537,0 -2.537,-2.538 0,0 -0.15,-4.328 2.537,-1.641 C 0,-4.179 1.643,0 0,0 Z" /></g><g
           transform="translate(103.2051,487.7871)"
           id="g456"><path
             id="path458"
             style="fill:#001822;fill-opacity:1;fill-rule:nonzero;stroke:none"
             d="m 0,0 c 0,0 -0.633,2.127 -2.761,0 0,0 -1.717,-3.583 0.896,-2.613 0,0 2.835,-0.297 1.865,2.613" /></g><g
           transform="translate(103.2051,487.7871)"
           id="g460"><path
             id="path462"
             style="fill:none;stroke:#000000;stroke-width:0.25;stroke-linecap:butt;stroke-linejoin:miter;stroke-miterlimit:4;stroke-dasharray:none;stroke-opacity:1"
             d="m 0,0 c 0,0 -0.633,2.127 -2.761,0 0,0 -1.717,-3.583 0.896,-2.613 0,0 2.835,-0.297 1.865,2.613 z" /></g><g
           transform="translate(108.6543,519.8047)"
           id="g464"><path
             id="path466"
             style="fill:#001822;fill-opacity:1;fill-rule:nonzero;stroke:none"
             d="m 0,0 c 0,0 -1.939,0.298 -2.537,-2.538 0,0 -0.597,-1.716 1.717,-1.716 0,0 1.514,0.495 1.914,2.375 C 1.094,-1.879 0.785,0 0,0" /></g><g
           transform="translate(108.6543,519.8047)"
           id="g468"><path
             id="path470"
             style="fill:none;stroke:#000000;stroke-width:0.25;stroke-linecap:butt;stroke-linejoin:miter;stroke-miterlimit:4;stroke-dasharray:none;stroke-opacity:1"
             d="m 0,0 c 0,0 -1.939,0.298 -2.537,-2.538 0,0 -0.597,-1.716 1.717,-1.716 0,0 1.514,0.495 1.914,2.375 C 1.094,-1.879 0.785,0 0,0 Z" /></g><g
           transform="translate(299.875,555.9282)"
           id="g472"><path
             id="path474"
             style="fill:#96161a;fill-opacity:1;fill-rule:nonzero;stroke:none"
             d="m 0,0 c 0,0 -1.643,4.03 -5.075,2.538 0,0 -1.119,-1.418 -2.537,0 0,0 -2.836,-3.135 -2.836,-4.628 0,-1.493 -2.986,-1.045 -2.986,-2.388 0,-1.343 -1.791,-1.94 -0.895,-4.627 0,0 -4.799,-2.442 -3.434,-7.166 0,0 -6.872,-7.524 -1.343,-15.225 0,0 0.895,-1.792 0,-3.583 0,0 -0.896,0.299 0,-2.686 0,0 -0.225,-2.613 0,-5.673 0,0 2.089,-1.194 2.089,-2.089 0,-0.896 -0.522,-4.105 0,-4.627 0.523,-0.523 2.538,-2.538 2.538,-2.538 0,0 -1.343,-1.193 3.732,-3.731 v -3.136 c 0,0 4.029,0.746 2.686,-18.51 0,0 -2.836,-11.792 2.986,-11.046 0,0 2.837,-1.194 2.837,5.673 v 12.239 c 0,0 -0.895,1.344 2.911,2.911 0,0 2.238,4.255 1.119,10.076 0,0 1.194,2.986 2.985,2.986 l 0.896,2.835 c 0,0 2.686,0.896 2.686,4.926 v 1.493 c 0,0 1.493,0.149 0.746,4.03 0,0 0.298,3.433 0.896,3.433 0,0 1.494,2.986 0.747,5.225 -0.747,2.239 0,0.598 0,0.598 0,0 1.418,5.597 0,7.015 l -1.119,1.12 c 0,0 -1.121,8.583 -2.464,11.12 l -1.343,1.344 v 1.941 l -2.538,4.328 c 0,0 -2.537,0.448 -0.895,2.09 0,0 2.164,1.12 0,1.642 C 0.225,-1.567 -1.792,0 0,0" /></g><g
           transform="translate(274.2012,535.1797)"
           id="g476"><path
             id="path478"
             style="fill:#419a3c;fill-opacity:1;fill-rule:nonzero;stroke:none"
             d="m 0,0 c 0,0 1.792,0.747 4.329,0 0,0 -1.493,-5.076 1.343,-10.897 0,0 0.971,-2.463 0,-3.433 0,0 -0.523,-1.268 0,-1.791 0.522,-0.523 -0.298,-1.343 -0.298,-1.343 l 0.298,-3.882 c 0,0 -0.448,-3.433 2.09,-3.433 v -2.388 c 0,-1.045 -0.897,-3.732 1.045,-3.881 1.941,-0.15 1.941,-2.239 1.941,-2.239 0,0 4.029,-3.732 4.029,-5.822 0,-2.09 1.12,0.151 1.12,-0.97 0,-1.12 1.94,-7.539 0.97,-9.628 0,0 -3.283,-0.298 -6.866,7.762 0,0 -2.015,2.015 -2.612,2.612 -0.598,0.598 -4.404,7.24 -4.404,7.986 0,0.746 -1.045,5.673 -1.045,5.673 0,0 3.135,1.791 0,13.434 -3.134,11.643 -1.194,2.985 -1.194,2.985 l -0.82,0.821 c 0,0 0.97,6.344 0.074,8.434" /></g><g
           transform="translate(270.3203,534.1348)"
           id="g480"><path
             id="path482"
             style="fill:#419a3c;fill-opacity:1;fill-rule:nonzero;stroke:none"
             d="m 0,0 c 0,0 -5.226,-3.881 -3.583,-14.031 0,0 -4.627,-11.942 -4.627,-15.674 0,0 -0.895,-8.061 0,-8.956 v -4.329 c 0,0 -0.597,-6.12 1.045,0 0,0 1.94,6.866 1.94,8.956 0,0 0.598,3.284 2.389,5.076 0,0 3.732,1.791 3.732,9.404 0,0 1.486,10.74 2.462,11.717 0,0 1.494,7.912 0.523,8.882 z" /></g><g
           transform="translate(274.5,525.4771)"
           id="g484"><path
             id="path486"
             style="fill:#419a3c;fill-opacity:1;fill-rule:nonzero;stroke:none"
             d="m 0,0 c 0,0 -1.021,2.399 -1.973,-3.036 0,0 -1.027,-12.058 -3.035,-15.184 -2.008,-3.126 -3.384,-2.54 -4.86,-10.221 l -1.477,-7.831 c 0,0 0.447,-1.941 1.866,1.865 0,0 3.359,8.285 6.195,11.121 0,0 3.73,6.119 4.328,6.717 C 1.642,-15.972 5.08,-7.766 0,0" /></g><g
           transform="translate(295.3145,550.2192)"
           id="g488"><path
             id="path490"
             style="fill:#ffffff;fill-opacity:1;fill-rule:nonzero;stroke:none"
             d="m 0,0 c 0,0 -1.553,-0.124 -1.553,1.554 0,1.676 -2.423,0.186 -1.956,-0.28 0,0 2.826,-3.262 0,-4.503 l -1.102,-1.104 c 0,0 -1.972,1.507 -2.469,0 v -1.133 c 0,0 -0.996,-1.491 -0.498,-1.988 0.498,-0.497 -2.111,1.491 -2.111,-4.472 0,0 1.365,-1.118 -1.865,-1.864 0,0 -1.242,-0.497 0,-3.602 0,0 1.491,-2.61 -0.869,-3.852 0,0 1.615,-1.988 1.615,-2.609 0,-0.621 -2.484,-2.981 -1.243,-2.981 1.243,0 1.988,-0.622 1.988,-2.734 0,0 -0.497,-2.857 1.802,-1.802 0,0 1.056,1.802 1.056,2.796 0,0.994 0.995,0.993 0.995,0 0,0 -0.497,-3.355 1.429,-1.429 0,0 0.434,0.559 2.05,0.559 0,0 2.98,-0.372 2.172,2.174 0,0 0.312,1.305 -2.67,0 0,0 -0.559,2.05 0.746,2.05 0,0 1.366,0.497 5.093,0 0,0 2.175,0.311 1.243,1.243 0,0 -2.858,2.36 -5.218,3.105 l -1.864,1.864 c 0,0 0.87,-4.099 -1.242,-3.478 0,0 -1.615,-0.621 -1.615,1.614 0,0 0.995,1.368 -1.367,1.368 l -2.112,3.354 c 0,0 -0.373,2.111 1.055,1.056 0,0 4.101,-3.603 5.903,-1.802 l 1.614,1.615 c 0,0 1.738,0.373 -1.367,1.367 0,0 -0.744,-0.374 -2.484,2.484 0,0 -1.242,1.492 0.497,1.492 1.74,0 1.118,-0.498 1.118,2.235 0,0 0.373,2.983 3.106,1.492 l 1.241,-1.243 2.735,0.995 -1.989,2.236 c 0,0 -2.05,-1.181 -1.616,0 0.436,1.18 1.492,2.236 1.492,2.236 0,0 1.261,1.416 -1.74,1.987" /></g><g
           transform="translate(302.998,540.9746)"
           id="g492"><path
             id="path494"
             style="fill:#ffffff;fill-opacity:1;fill-rule:nonzero;stroke:none"
             d="m 0,0 c 0,0 0.127,4.434 -3.295,1.014 v -1.141 c 0,0 -3.292,-1.013 -0.632,-2.28 l 1.9,-1.9 c 0,0 0.886,-1.393 1.457,1.457 0,0 1.14,0.794 0.57,2.85" /></g><g
           transform="translate(304.0869,532.5972)"
           id="g496"><path
             id="path498"
             style="fill:#ffffff;fill-opacity:1;fill-rule:nonzero;stroke:none"
             d="m 0,0 c 0,0 -2.585,1.322 -3.188,1.322 -0.6,0 -3.247,0 -1.923,-1.322 1.323,-1.323 3.488,-1.685 3.488,-1.685 l 1.021,-1.021 1.745,0.661 c 0,0 2.403,10e-4 1.202,1.203 C 1.143,0.36 0,0 0,0" /></g><g
           transform="translate(307.7402,526.8403)"
           id="g500"><path
             id="path502"
             style="fill:#ffffff;fill-opacity:1;fill-rule:nonzero;stroke:none"
             d="m 0,0 c 0,0 -1.202,2.936 -2.068,2.069 -0.869,-0.867 -1.468,-2.669 -0.869,-3.27 0.602,-0.6 0.602,-1.469 0.602,-1.469 h 1.534 L 0.4,-2.002 v 1.335 z" /></g><g
           transform="translate(305.498,521.4902)"
           id="g504"><path
             id="path506"
             style="fill:#ffffff;fill-opacity:1;fill-rule:nonzero;stroke:none"
             d="m 0,0 c 0,0 -3.172,-0.793 -3.964,-0.793 h -0.794 v -1.718 c 0,0 -1.586,-2.114 0,-2.114 1.586,0 2.71,-1.124 2.71,-1.124 h 1.52 v 2.181 c 0,0 3.171,-1.322 3.171,1.321 z" /></g><g
           transform="translate(294.1426,511.2271)"
           id="g508"><path
             id="path510"
             style="fill:#ffffff;fill-opacity:1;fill-rule:nonzero;stroke:none"
             d="m 0,0 c 0,0 -4.453,4.454 -7.423,3.464 0,0 -0.566,-0.142 0,-3.677 0,0 0.083,-1.345 3.111,0 l 0.919,-0.918 c 0,0 0.212,-2.049 3.393,1.131" /></g><g
           transform="translate(296.1221,505.2881)"
           id="g512"><path
             id="path514"
             style="fill:#ffffff;fill-opacity:1;fill-rule:nonzero;stroke:none"
             d="m 0,0 -1.838,1.838 c 0,0 -1.059,0.637 -1.059,-1.06 0,0 -3.395,0.848 -3.395,0 0,-0.849 -1.414,-1.839 0.99,-1.839 C -2.898,-1.061 0,-1.838 0,0" /></g><g
           transform="translate(300.4727,497.1157)"
           id="g516"><path
             id="path518"
             style="fill:#ffffff;fill-opacity:1;fill-rule:nonzero;stroke:none"
             d="m 0,0 c 0,0 -2.538,0.447 -2.538,-4.627 v -3.284 c 0,-1.642 0.151,-1.492 1.792,0.149 1.641,1.642 1.343,4.179 1.343,5.374 C 0.597,-1.194 0,0 0,0" /></g><g
           transform="translate(296.1436,480.0986)"
           id="g520"><path
             id="path522"
             style="fill:#ffffff;fill-opacity:1;fill-rule:nonzero;stroke:none"
             d="m 0,0 c 0,0 -1.567,-1.567 -2.239,-2.239 -0.672,-0.672 -1.792,-1.642 -0.672,-5.075 1.12,-3.434 0.224,-4.329 1.12,-4.329 0.895,0 3.284,-1.194 2.09,3.433 C -0.896,-3.583 0,-2.687 0,-2.687 c 0,0 1.045,1.642 0,2.687" /></g><g
           transform="translate(172.4258,178.248)"
           id="g524"><path
             id="path526"
             style="fill:#000000;fill-opacity:1;fill-rule:nonzero;stroke:none"
             d="M 0,0 H 3.487 L 3.365,-5.806 h -3.616 z" /></g><g
           transform="translate(179.7227,178.248)"
           id="g528"><path
             id="path530"
             style="fill:#000000;fill-opacity:1;fill-rule:nonzero;stroke:none"
             d="M 0,0 4.197,-6.07 H 8.782 L 4.151,0 Z" /></g><g
           transform="translate(191.1895,178.5254)"
           id="g532"><path
             id="path534"
             style="fill:#000000;fill-opacity:1;fill-rule:nonzero;stroke:none"
             d="M 0,0 3.75,-0.677 3.851,-2.456 14.043,-2.4 V -5.65 L 0.376,-6.232 Z" /></g><g
           transform="translate(180.9668,182.3652)"
           id="g536"><path
             id="path538"
             style="fill:#000000;fill-opacity:1;fill-rule:nonzero;stroke:none"
             d="m 0,0 h -8.412 l -0.129,-4.117 h 3.487 l 2.228,2.228 1.582,-2.228 4.263,-0.146 z" /></g><g
           transform="translate(82.9912,214.3457)"
           id="g540"><path
             id="path542"
             style="fill:#000000;fill-opacity:1;fill-rule:nonzero;stroke:none"
             d="m 0,0 13.367,-6.264 -1.421,-2.777 -4.842,2.26 -2.766,-5.305 -3.412,1.874 2.626,5.046 -5.166,2.453 z" /></g><g
           transform="translate(84.2822,204.8535)"
           id="g544"><path
             id="path546"
             style="fill:#000000;fill-opacity:1;fill-rule:nonzero;stroke:none"
             d="M 0,0 3.552,-1.615 1.379,-5.832 -2.772,-5.461 Z" /></g><g
           transform="translate(82.7529,201.8408)"
           id="g548"><path
             id="path550"
             style="fill:#000000;fill-opacity:1;fill-rule:nonzero;stroke:none"
             d="M 0,0 3.258,-2.14 0.432,-7.772 -3.055,-6.157 Z" /></g><g
           transform="translate(98.0869,207.3193)"
           id="g552"><path
             id="path554"
             style="fill:#000000;fill-opacity:1;fill-rule:nonzero;stroke:none"
             d="m 0,0 -3.214,-7.125 13.616,-5.787 3.53,7.411 -3.31,1.476 -2.987,-6.2 -7.038,2.907 2.587,5.872 z" /></g><g
           transform="translate(95.1162,200.7334)"
           id="g556"><path
             id="path558"
             style="fill:#000000;fill-opacity:1;fill-rule:nonzero;stroke:none"
             d="M 0,0 13.709,-5.62 11.748,-9.702 8.389,-8.409 9.1,-6.667 2.19,-3.89 0.993,-6.365 l -3.44,1.398 z" /></g><g
           transform="translate(92.9214,196.3945)"
           id="g560"><path
             id="path562"
             style="fill:#000000;fill-opacity:1;fill-rule:nonzero;stroke:none"
             d="m 0,0 -2.751,-5.579 3.401,-1.61 2.822,5.805 z" /></g><g
           transform="translate(103.7119,192.7812)"
           id="g564"><path
             id="path566"
             style="fill:#000000;fill-opacity:1;fill-rule:nonzero;stroke:none"
             d="m 0,0 -2.558,-6.002 3.071,-1.283 2.742,5.738 z" /></g><g
           transform="translate(111.8296,192.9277)"
           id="g568"><path
             id="path570"
             style="fill:#000000;fill-opacity:1;fill-rule:nonzero;stroke:none"
             d="M 0,0 3.822,-1.312 6.936,6.433 3.324,7.904 Z" /></g><g
           transform="translate(125.0947,197.2373)"
           id="g572"><path
             id="path574"
             style="fill:#000000;fill-opacity:1;fill-rule:nonzero;stroke:none"
             d="m 0,0 -2.777,-8.33 3.49,-1.321 2.903,8.489 z" /></g><g
           transform="translate(112.0566,193.6416)"
           id="g576"><path
             id="path578"
             style="fill:#000000;fill-opacity:1;fill-rule:nonzero;stroke:none"
             d="m 0,0 3.731,-1.659 -1.613,-4.339 -3.37,1.09 z" /></g><g
           transform="translate(122.3652,189.0469)"
           id="g580"><path
             id="path582"
             style="fill:#000000;fill-opacity:1;fill-rule:nonzero;stroke:none"
             d="m 0,0 -1.146,-3.341 3.268,-1.43 1.382,3.464 z" /></g><g
           transform="translate(114.2461,187.998)"
           id="g584"><path
             id="path586"
             style="fill:#000000;fill-opacity:1;fill-rule:nonzero;stroke:none"
             d="m 0,0 -3.358,1.033 c 0,0 -1.485,-4.197 2.841,-6.844 0,0 3.874,-2.066 7.491,-1.033 0,0 2.582,0.453 3.325,3.326 l -3.325,1.387 c 0,0 -0.582,-2.842 -5.037,-1.42 0,0 -2.615,0.871 -1.937,3.551" /></g><g
           transform="translate(133.4712,187.5586)"
           id="g588"><path
             id="path590"
             style="fill:#000000;fill-opacity:1;fill-rule:nonzero;stroke:none"
             d="M 0,0 3.856,-0.586 3.12,-4.15 -0.658,-3.607 Z" /></g><g
           transform="translate(132.813,183.9512)"
           id="g592"><path
             id="path594"
             style="fill:#000000;fill-opacity:1;fill-rule:nonzero;stroke:none"
             d="M 0,0 3.834,-0.264 2.098,-7.21 -1.301,-6.463 Z" /></g><g
           transform="translate(133.4258,186.9766)"
           id="g596"><path
             id="path598"
             style="fill:#000000;fill-opacity:1;fill-rule:nonzero;stroke:none"
             d="M 0,0 3.689,-1.034 4.906,4.768 10.396,3.734 10.912,6.77 -3.682,9.547 -4.328,6.576 1.097,5.414 Z" /></g><g
           transform="translate(144.2017,185.6377)"
           id="g600"><path
             id="path602"
             style="fill:#000000;fill-opacity:1;fill-rule:nonzero;stroke:none"
             d="m 0,0 c 0,0 2.332,8.56 10.404,6.946 0,0 7.629,-0.496 7.305,-9.084 l -3.753,0.561 c 0,0 0.517,5.326 -5.328,5.326 0,0 -3.067,-0.065 -5.198,-4.327 z" /></g><g
           transform="translate(144.2017,185.6377)"
           id="g604"><path
             id="path606"
             style="fill:#000000;fill-opacity:1;fill-rule:nonzero;stroke:none"
             d="m 0,0 3.558,-0.329 c 0,0 -0.902,-1.896 -0.451,-3.509 l -3.487,0.317 c 0,0 -0.245,0.249 0.38,3.521" /></g><g
           transform="translate(158.168,184.2891)"
           id="g608"><path
             id="path610"
             style="fill:#000000;fill-opacity:1;fill-rule:nonzero;stroke:none"
             d="m 0,0 3.734,-0.593 -0.839,-4.35 -3.617,0.904 c 0,0 0.722,1.65 0.722,4.039" /></g><g
           transform="translate(143.8213,182.4453)"
           id="g612"><path
             id="path614"
             style="fill:#000000;fill-opacity:1;fill-rule:nonzero;stroke:none"
             d="m 0,0 c 0,0 -1.034,-6.652 7.038,-8.395 0,0 7.477,-1.148 10.203,5.295 l -3.46,1.061 c 0,0 -2.997,-4.418 -7.001,-2.998 0,0 -2.567,0.326 -3.293,4.586 z" /></g><g
           transform="translate(172.5547,183.1562)"
           id="g616"><path
             id="path618"
             style="fill:#000000;fill-opacity:1;fill-rule:nonzero;stroke:none"
             d="m 0,0 v 7.684 h 4.004 v -8.008 l 7.459,7.459 h 4.875 L 8.412,-0.791 H 0 Z" /></g><g
           transform="translate(203.9404,191.0234)"
           id="g620"><path
             id="path622"
             style="fill:#000000;fill-opacity:1;fill-rule:nonzero;stroke:none"
             d="m 0,0 -13.498,-0.506 0.496,-7.534 3.637,0.042 -0.171,4.478 9.793,0.497 z" /></g><g
           transform="translate(203.8096,183.7363)"
           id="g624"><path
             id="path626"
             style="fill:#000000;fill-opacity:1;fill-rule:nonzero;stroke:none"
             d="m 0,0 -12.979,-0.645 0.386,-5.638 h 3.746 l -0.162,2.765 9.18,0.547 z" /></g><g
           transform="translate(212.1494,192.002)"
           id="g628"><path
             id="path630"
             style="fill:#000000;fill-opacity:1;fill-rule:nonzero;stroke:none"
             d="m 0,0 14.875,2.834 0.491,-3.08 -5.242,-1.035 0.694,-4.451 -3.536,-0.51 -0.753,4.168 -6.046,-1.069 z" /></g><g
           transform="translate(219.4316,185.7598)"
           id="g632"><path
             id="path634"
             style="fill:#000000;fill-opacity:1;fill-rule:nonzero;stroke:none"
             d="M 0,0 3.497,0.761 4.305,-3.445 0.748,-4.199 Z" /></g><g
           transform="translate(220.1797,181.5605)"
           id="g636"><path
             id="path638"
             style="fill:#000000;fill-opacity:1;fill-rule:nonzero;stroke:none"
             d="M 0,0 3.512,0.989 4.584,-5.31 1.106,-6.102 Z" /></g><g
           transform="translate(228.5645,195.0771)"
           id="g640"><path
             id="path642"
             style="fill:#000000;fill-opacity:1;fill-rule:nonzero;stroke:none"
             d="M 0,0 2.363,-8.842 16.44,-4.437 14.452,3.851 10.781,2.776 12.575,-3.694 5.244,-5.753 3.559,1.027 Z" /></g><g
           transform="translate(230.8086,186.7412)"
           id="g644"><path
             id="path646"
             style="fill:#000000;fill-opacity:1;fill-rule:nonzero;stroke:none"
             d="M 0,0 14.196,3.899 15.055,0.354 11.734,-0.882 11.099,1.468 3.948,-0.614 4.393,-2.646 0.896,-3.795 Z" /></g><g
           transform="translate(231.5918,183.4199)"
           id="g648"><path
             id="path650"
             style="fill:#000000;fill-opacity:1;fill-rule:nonzero;stroke:none"
             d="M 0,0 1.517,-6.385 5.066,-5.422 3.514,1.112 Z" /></g><g
           transform="translate(242.3555,186.6396)"
           id="g652"><path
             id="path654"
             style="fill:#000000;fill-opacity:1;fill-rule:nonzero;stroke:none"
             d="M 0,0 1.612,-6.702 4.893,-5.749 3.425,1.125 Z" /></g><g
           transform="translate(251.1338,187.1016)"
           id="g656"><path
             id="path658"
             style="fill:#000000;fill-opacity:1;fill-rule:nonzero;stroke:none"
             d="m 0,0 3.408,1.117 0.53,-1.451 9.765,2.875 0.764,-3.158 -12.866,-4.06 z" /></g><g
           transform="translate(259.1719,204.2344)"
           id="g660"><path
             id="path662"
             style="fill:#000000;fill-opacity:1;fill-rule:nonzero;stroke:none"
             d="m 0,0 -12.834,-4.416 2.493,-6.65 3.575,1.117 -1.118,3.574 9.088,3.18 z" /></g><g
           transform="translate(260.9805,197.1533)"
           id="g664"><path
             id="path666"
             style="fill:#000000;fill-opacity:1;fill-rule:nonzero;stroke:none"
             d="m 0,0 -12.149,-3.985 2.302,-6.067 3.453,0.995 -0.857,2.712 8.435,3.211 z" /></g><g
           transform="translate(285.6826,198.626)"
           id="g668"><path
             id="path670"
             style="fill:#000000;fill-opacity:1;fill-rule:nonzero;stroke:none"
             d="M 0,0 3.258,1.37 3.77,0.229 12.844,4.843 14.172,1.878 1.939,-4.243 Z" /></g><g
           transform="translate(291.9902,216.2725)"
           id="g672"><path
             id="path674"
             style="fill:#000000;fill-opacity:1;fill-rule:nonzero;stroke:none"
             d="m 0,0 -12.544,-5.666 4.273,-8.259 2.448,2.409 -2.154,4.447 9.247,4.384 z" /></g><g
           transform="translate(294.4932,209.7422)"
           id="g676"><path
             id="path678"
             style="fill:#000000;fill-opacity:1;fill-rule:nonzero;stroke:none"
             d="m 0,0 -11.777,-5.492 3.213,-6.092 3.263,1.305 -1.715,3.623 8.283,4.052 z" /></g><g
           transform="translate(265.5234,197.6768)"
           id="g680"><path
             id="path682"
             style="fill:#000000;fill-opacity:1;fill-rule:nonzero;stroke:none"
             d="M 0,0 3.483,1.779 1.876,5.366 6.042,7.032 c 0,0 2.588,1.472 3.546,-2.212 l 3.359,0.95 c 0,0 -1.155,6.178 -7.988,4.096 l -8,-3 z" /></g><g
           transform="translate(278.4443,203.6631)"
           id="g684"><path
             id="path686"
             style="fill:#000000;fill-opacity:1;fill-rule:nonzero;stroke:none"
             d="m 0,0 -3.333,-1.166 c 0,0 -0.083,-1 -1.875,-1.875 l -3.959,-1.709 -0.416,0.834 -3.5,-1.666 2.166,-5.39 3.584,1.64 -0.655,1.75 c 0,0 4.238,1.334 4.905,2 0,0 1.481,0.907 2.371,-1.206 L 2.5,-4.75 c 0,0 -0.75,1.834 -3,1.834 0,0 0.746,1.498 0.5,2.916" /></g><g
           transform="translate(267.3154,193.209)"
           id="g688"><path
             id="path690"
             style="fill:#000000;fill-opacity:1;fill-rule:nonzero;stroke:none"
             d="m 0,0 3.584,1.334 1.166,-2.668 5.667,2.5 c 0,0 1.024,1.139 0,2.5 l 3.212,2.038 c 0,0 2.622,-5.204 -1.795,-7.37 L 2.25,-5.5 Z" /></g><g
           id="g692"><g
             id="g694" /><g
             id="g706"><g
               style="opacity:0.39999402"
               id="g704"
               clip-path="url(#clipPath698)"><g
                 id="g702"
                 transform="translate(14.2222,191.4023)"><path
                   id="path700"
                   style="fill:#253842;fill-opacity:1;fill-rule:nonzero;stroke:none"
                   d="m 0,0 34,49.797 c 0,0 136.667,-79.998 276,0 l 33.333,-48 c 0,0 -4,1.334 -43.333,-16.666 0,0 -126,-64 -283.333,12 0,0 -3.334,5.74 -16.667,2.869" /></g></g></g></g><g
           transform="translate(30.3154,169.543)"
           id="g708"><path
             id="path710"
             style="fill:#96161a;fill-opacity:1;fill-rule:nonzero;stroke:none"
             d="m 0,0 10.667,15.781 c 0,0 -23.047,16.655 -31.523,2.885 C -20.856,18.666 -19.334,0 0,0" /></g><g
           transform="translate(30.3154,169.543)"
           id="g712"><path
             id="path714"
             style="fill:none;stroke:#000000;stroke-width:0.25;stroke-linecap:butt;stroke-linejoin:miter;stroke-miterlimit:4;stroke-dasharray:none;stroke-opacity:1"
             d="m 0,0 10.667,15.781 c 0,0 -23.047,16.655 -31.523,2.885 C -20.856,18.666 -19.334,0 0,0 Z" /></g><g
           transform="translate(328.5576,186.0937)"
           id="g716"><path
             id="path718"
             style="fill:#96161a;fill-opacity:1;fill-rule:nonzero;stroke:none"
             d="m 0,0 9.758,-17.217 c 0,0 15.088,1.334 21.544,14.666 0,0 5.606,23.1 -31.302,2.551" /></g><g
           transform="translate(328.5576,186.0937)"
           id="g720"><path
             id="path722"
             style="fill:none;stroke:#000000;stroke-width:0.25;stroke-linecap:butt;stroke-linejoin:miter;stroke-miterlimit:4;stroke-dasharray:none;stroke-opacity:1"
             d="m 0,0 9.758,-17.217 c 0,0 15.088,1.334 21.544,14.666 0,0 5.606,23.1 -31.302,2.551 z" /></g><g
           transform="translate(48.6016,113.1719)"
           id="g724"><path
             id="path726"
             style="fill:#96161a;fill-opacity:1;fill-rule:nonzero;stroke:none"
             d="m 0,0 v -1.24 c 0,0 1.633,0.131 1.633,-0.653 v -9.595 h 5.548 v 9.855 c 0,0 -0.131,0.524 1.24,0.524 v 1.173 z" /></g><g
           transform="translate(70.9277,113.1719)"
           id="g728"><path
             id="path730"
             style="fill:#96161a;fill-opacity:1;fill-rule:nonzero;stroke:none"
             d="m 0,0 v -1.176 c 0,0 1.631,0.197 1.631,-0.326 v -9.529 h 5.353 v 8.943 c 0,0 -0.261,0.783 0.784,0.783 H 8.225 V 0 Z" /></g><g
           transform="translate(50.2344,101.6836)"
           id="g732"><path
             id="path734"
             style="fill:#96161a;fill-opacity:1;fill-rule:nonzero;stroke:none"
             d="m 0,0 h 5.548 l 0.032,-10.412 -5.646,0.031 z" /></g><g
           transform="translate(50.168,91.3027)"
           id="g736"><path
             id="path738"
             style="fill:#96161a;fill-opacity:1;fill-rule:nonzero;stroke:none"
             d="m 0,0 c 0,0 -0.392,-5.549 4.57,-8.42 0,0 0.391,-1.566 9.139,-1.566 0,0 6.463,-1.11 10.445,2.154 0,0 3.616,1.957 3.616,8.355 h -5.444 c 0,0 0.326,-4.765 -4.57,-5.548 0,0 -1.696,-0.85 -7.115,0 0,0 -4.995,1.24 -4.995,4.994 z" /></g><g
           transform="translate(84.5039,113.1719)"
           id="g740"><path
             id="path742"
             style="fill:#96161a;fill-opacity:1;fill-rule:nonzero;stroke:none"
             d="m 0,0 v -1.176 c 0,0 0.914,0.328 0.914,-1.762 l -0.051,-8.55 h 4.362 l -0.003,4.568 3.788,-4.504 6.313,-0.219 -8.012,9.815 c 0,0 -0.653,0.652 0,0.652 v 1.307 z" /></g><g
           transform="translate(72.5586,102.1406)"
           id="g744"><path
             id="path746"
             style="fill:#96161a;fill-opacity:1;fill-rule:nonzero;stroke:none"
             d="m 0,0 5.359,0.269 0.02,-10.583 h -5.443 z" /></g><g
           transform="translate(85.3672,101.6836)"
           id="g748"><path
             id="path750"
             style="fill:#96161a;fill-opacity:1;fill-rule:nonzero;stroke:none"
             d="M 0,0 H 4.361 V -9.857 H -0.051 Z" /></g><g
           transform="translate(93.5137,101.748)"
           id="g752"><path
             id="path754"
             style="fill:#96161a;fill-opacity:1;fill-rule:nonzero;stroke:none"
             d="m 0,0 8.029,-9.922 h 8.095 V 0 H 11.816 V -6.984 L 6.135,0 Z" /></g><g
           transform="translate(89.7285,91.8262)"
           id="g756"><path
             id="path758"
             style="fill:#96161a;fill-opacity:1;fill-rule:nonzero;stroke:none"
             d="m 0,0 -0.001,-3.525 c 0,0 -0.001,-0.784 0.783,-0.784 v -0.849 h -5.94 v 0.849 c 0,0 0.751,-0.261 0.751,0.75 0,1.012 -0.005,3.559 -0.005,3.559 z" /></g><g
           transform="translate(101.543,91.8262)"
           id="g760"><path
             id="path762"
             style="fill:#96161a;fill-opacity:1;fill-rule:nonzero;stroke:none"
             d="m 0,0 2.742,-3.33 c 0,0 0.75,-0.359 0,-1.109 H 2.416 v -0.784 h 6.527 v 0.914 c 0,0 -0.947,-0.392 -0.947,0.946 v 1.34 L 8.095,0 Z" /></g><g
           transform="translate(104.2188,113.1719)"
           id="g764"><path
             id="path766"
             style="fill:#96161a;fill-opacity:1;fill-rule:nonzero;stroke:none"
             d="m 0,0 v -1.176 c 0,0 1.208,0.262 1.208,-1.207 v -1.469 l -0.097,-7.572 h 4.308 l -0.131,9.988 h 0.913 v 1.5 z" /></g><g
           transform="translate(119.625,113.1719)"
           id="g768"><path
             id="path770"
             style="fill:#96161a;fill-opacity:1;fill-rule:nonzero;stroke:none"
             d="m 0,0 v -1.176 c 0,0 1.436,0.065 1.436,-0.847 v -9.008 h 4.831 v 9.008 c 0,0 -0.066,0.914 1.436,0.914 v 1.173 z" /></g><g
           transform="translate(121.0605,102.1406)"
           id="g772"><path
             id="path774"
             style="fill:#96161a;fill-opacity:1;fill-rule:nonzero;stroke:none"
             d="M 0,0 H 4.831 L 4.896,-10.576 H 0.066 Z" /></g><g
           transform="translate(121.127,91.5645)"
           id="g776"><path
             id="path778"
             style="fill:#96161a;fill-opacity:1;fill-rule:nonzero;stroke:none"
             d="m 0,0 h 4.83 v -3.199 c 0,0 0.066,-1.076 1.077,-1.076 h 0.489 v -0.686 h -7.833 v 0.914 c 0,0 1.501,-0.262 1.501,0.326 z" /></g><g
           transform="translate(133.4629,113.1719)"
           id="g780"><path
             id="path782"
             style="fill:#96161a;fill-opacity:1;fill-rule:nonzero;stroke:none"
             d="m 0,0 v -1.24 c 0,0 0.458,0.523 1.143,-1.143 l 3.623,-8.648 h 5.288 l -3.46,8.943 c 0,0 -0.524,0.783 0.783,0.783 V 0 Z" /></g><g
           transform="translate(138.2285,102.1406)"
           id="g784"><path
             id="path786"
             style="fill:#96161a;fill-opacity:1;fill-rule:nonzero;stroke:none"
             d="m 0,0 4.494,-11.237 7.809,0.169 4.474,10.675 H 12.143 L 9.27,-8.029 c 0,0 -0.293,-1.535 -0.915,0 C 7.736,-6.496 5.288,0 5.288,0 Z" /></g><g
           transform="translate(153.0469,113.1719)"
           id="g788"><path
             id="path790"
             style="fill:#96161a;fill-opacity:1;fill-rule:nonzero;stroke:none"
             d="m 0,0 v -1.176 c 0,0 0.914,0.131 0.914,-0.914 l -3.59,-9.334 h 4.635 l 3.852,9.727 c 0,0 0.195,0.326 0.783,0.326 V 0 Z" /></g><g
           transform="translate(150.7617,91.3027)"
           id="g792"><path
             id="path794"
             style="fill:#96161a;fill-opacity:1;fill-rule:nonzero;stroke:none"
             d="m 0,0 h -8.225 l 1.241,-2.676 c 0,0 0.326,-1.176 -0.653,-1.176 V -4.83 h 7.442 v 1.176 c 0,0 -1.176,-0.326 -0.751,0.75 C -0.521,-1.826 0,0 0,0" /></g><g
           transform="translate(186.4707,114.1328)"
           id="g796"><path
             id="path798"
             style="fill:#96161a;fill-opacity:1;fill-rule:nonzero;stroke:none"
             d="m 0,0 h -1 c 0,0 0.251,-1.25 -1.25,-1.25 H -21 v -0.916 c 0,0 0.75,0.25 0.75,-2.334 v -7.916 h 15.584 v 1.834 H -5.5 c 0,0 1.334,-0.75 -5.333,-0.75 h -4.75 v 6 H -2 c 0,0 1.042,0.166 1.042,-1.043 h 0.792 z" /></g><g
           transform="translate(166.2207,90.7168)"
           id="g800"><path
             id="path802"
             style="fill:#96161a;fill-opacity:1;fill-rule:nonzero;stroke:none"
             d="m 0,0 v -2.416 c 0,0 0.249,-0.75 -0.75,-0.75 v -1 H 18.5 c 0,0 1.416,0.25 1.416,-0.668 h 0.668 V 1.25 H 19.75 c 0,0 0.168,-1.293 -1.291,-1.293 H 4.834 Z" /></g><g
           transform="translate(166.2207,101.7168)"
           id="g804"><path
             id="path806"
             style="fill:#96161a;fill-opacity:1;fill-rule:nonzero;stroke:none"
             d="m 0,0 v -11 l 4.834,-0.043 -0.084,7.459 h 8.417 c 0,0 1.5,0.166 1.5,-0.666 h 0.917 V 0 Z" /></g><g
           transform="translate(195.0547,92.7168)"
           id="g808"><path
             id="path810"
             style="fill:#96161a;fill-opacity:1;fill-rule:nonzero;stroke:none"
             d="m 0,0 0.082,-4.334 c 0,0 0.252,-0.875 -0.873,-0.875 V -6.25 h 6.707 v 0.916 c 0,0 -1.041,-0.248 -1.041,1.043 L 5,0 Z" /></g><g
           transform="translate(209.9707,92.3828)"
           id="g812"><path
             id="path814"
             style="fill:#96161a;fill-opacity:1;fill-rule:nonzero;stroke:none"
             d="m 0,0 2.5,-4.082 c 0,0 0.332,-0.834 -0.834,-0.834 V -5.832 H 9.5 v 0.916 c 0,0 -0.875,0.207 -1.416,0.75 l -2.75,4.334 z" /></g><g
           id="g816"><g
             id="g818" /><g
             id="g830"><g
               style="opacity:0.99000501"
               id="g828"
               clip-path="url(#clipPath822)"><g
                 id="g826"
                 transform="translate(195.2207,101.1328)"><path
                   id="path824"
                   style="fill:#96161a;fill-opacity:1;fill-rule:nonzero;stroke:none"
                   d="m 0,0 -0.166,-8.416 h 5 V -4 h 7.332 L 14.75,-8.75 20.084,-8.582 17,-3.25 c 0,0 3.748,0.584 4.875,3.291 z" /></g></g></g></g><g
           transform="translate(194.2207,113.2168)"
           id="g832"><path
             id="path834"
             style="fill:#96161a;fill-opacity:1;fill-rule:nonzero;stroke:none"
             d="m 0,0 v -1.416 c 0,0 1,-0.084 1,-1 v -0.918 -8.75 l 4.834,0.01 v 7.49 h 8.582 c 0,0 3.75,-0.084 4.668,-1.916 0,0 0.416,-1 0,-2.75 0,0 -0.668,-2.373 -2.375,-2.805 l 6.045,-0.233 c 0,0 2.414,4.288 0.746,7.622 0,0 -1.666,3.5 -6.25,4.25 0,0 -2.416,0.416 -3.75,0.416 z" /></g><g
           transform="translate(225.2207,91.9668)"
           id="g836"><path
             id="path838"
             style="fill:#96161a;fill-opacity:1;fill-rule:nonzero;stroke:none"
             d="m 0,0 -0.916,-2.75 0.541,-0.543 c 0,0 -0.041,0.875 1.959,0 0,0 5.582,-3.623 14.5,-1.541 0,0 3.383,0.5 5.32,4.834 h -5.238 c 0,0 -3.334,-3.584 -11.25,0 z" /></g><g
           transform="translate(226.8047,95.9668)"
           id="g840"><path
             id="path842"
             style="fill:#96161a;fill-opacity:1;fill-rule:nonzero;stroke:none"
             d="m 0,0 -1.584,-4 h 4.916 c 0,0 -3.834,1.666 -2.5,4 z" /></g><g
           transform="translate(226.3867,101.1738)"
           id="g844"><path
             id="path846"
             style="fill:#96161a;fill-opacity:1;fill-rule:nonzero;stroke:none"
             d="m 0,0 c 0.174,-0.855 0.75,-2.793 10.25,-3.707 0,0 5.668,-0.584 5.668,-3.5 L 15,-9.508 l 5.238,0.301 c 0,0 1.324,4.397 -1.029,7.375 0,0 -1.791,1.832 -2.625,1.832 z" /></g><g
           transform="translate(244.8867,104.9668)"
           id="g848"><path
             id="path850"
             style="fill:#96161a;fill-opacity:1;fill-rule:nonzero;stroke:none"
             d="m 0,0 2.25,5 c 0,0 1.084,1.5 -0.75,0.75 0,0 0.084,-0.416 -1.832,0.416 0,0 -4.334,2.25 -8.334,2.25 0,0 -5.25,0.334 -8.916,-2.582 0,0 -2.168,-2.084 -2.168,-4.584 0,0 -0.096,-3.697 1.25,-5.043 h 16.584 c 0,0 -8,1.627 -9.834,2.127 0,0 -5.498,1.5 -2.416,4.582 0,0 1.334,1.992 8.334,0.834 0,0 1.332,-0.416 4.582,-2.084 0,0 0.334,-0.416 0.334,-1.25 z" /></g><g
           transform="translate(255.5371,112.9219)"
           id="g852"><path
             id="path854"
             style="fill:#96161a;fill-opacity:1;fill-rule:nonzero;stroke:none"
             d="m 0,0 v -1.176 c 0,0 1.436,0.065 1.436,-0.847 v -9.008 h 4.832 v 9.008 c 0,0 -0.067,0.914 1.435,0.914 v 1.173 z" /></g><g
           transform="translate(256.9727,101.8906)"
           id="g856"><path
             id="path858"
             style="fill:#96161a;fill-opacity:1;fill-rule:nonzero;stroke:none"
             d="M 0,0 H 4.832 L 4.896,-10.229 H 0.094 Z" /></g><g
           transform="translate(257.0664,91.6621)"
           id="g860"><path
             id="path862"
             style="fill:#96161a;fill-opacity:1;fill-rule:nonzero;stroke:none"
             d="m 0,0 h 4.803 v -3.547 c 0,0 0.066,-1.076 1.078,-1.076 h 0.488 v -0.686 h -7.832 v 0.914 c 0,0 1.5,-0.261 1.5,0.327 z" /></g><g
           transform="translate(278.8496,91.4121)"
           id="g864"><path
             id="path866"
             style="fill:#96161a;fill-opacity:1;fill-rule:nonzero;stroke:none"
             d="m 0,0 -0.045,-3.111 c 0,0 0.414,-0.5 -0.834,-0.834 v -0.916 h 6.5 v 1 c 0,0 -0.832,-0.168 -0.832,0.832 L 4.803,0 Z" /></g><g
           transform="translate(279,101.8828)"
           id="g868"><path
             id="path870"
             style="fill:#96161a;fill-opacity:1;fill-rule:nonzero;stroke:none"
             d="M 0,0 H 4.563 L 4.652,-10.471 H -0.15 Z" /></g><g
           transform="translate(269.834,114.5508)"
           id="g872"><path
             id="path874"
             style="fill:#96161a;fill-opacity:1;fill-rule:nonzero;stroke:none"
             d="m 0,0 v -6.918 h 1 c 0,0 0.25,1.125 1.125,1.125 h 7.104 l -0.063,-6.875 h 4.5 v 6.918 h 7 c 0,0 1.084,-0.166 1.084,-1.084 h 0.832 v 6.916 h -0.75 c 0,0 0.168,-1.707 -1.707,-1.707 H 1.916 C 1.916,-1.625 1,-1.584 1,0 Z" /></g><g
           transform="translate(308.7422,84.1328)"
           id="g876"><path
             id="path878"
             style="fill:#96161a;fill-opacity:1;fill-rule:nonzero;stroke:none"
             d="m 0,0 c 0,0 -0.125,-1 -1,-1 v -1 h 7.75 v 1.25 c 0,0 -1,-0.5 -1,2.375 L 5.812,8.25 h -5.874 z" /></g><g
           transform="translate(304.6797,102.1328)"
           id="g880"><path
             id="path882"
             style="fill:#96161a;fill-opacity:1;fill-rule:nonzero;stroke:none"
             d="m 0,0 4,-6 v -3.75 h 5.875 v 2.875 l 4.75,7 H 8.875 L 7.608,-1.505 6.5,0 Z" /></g><g
           transform="translate(296.0547,113.6328)"
           id="g884"><path
             id="path886"
             style="fill:#96161a;fill-opacity:1;fill-rule:nonzero;stroke:none"
             d="m 0,0 v -1.375 c 0,0 1.937,-0.562 2.625,-1.25 l 6,-8.875 h 6.5 l -6,8.875 c 0,0 -0.625,1.188 1.188,1.188 V 0 Z" /></g><g
           transform="translate(317.8047,113.6328)"
           id="g888"><path
             id="path890"
             style="fill:#96161a;fill-opacity:1;fill-rule:nonzero;stroke:none"
             d="m 0,0 v -1.25 c 0,0 2.375,0.5 1.187,-1.188 L -4.25,-11.375 H 1.5 l 6.25,9.25 c 0,0 0.5,0.875 1.375,0.875 H 9.391 V 0 Z" /></g><g
           transform="translate(14.6992,51.1152)"
           id="g892"><path
             id="path894"
             style="fill:#96161a;fill-opacity:1;fill-rule:nonzero;stroke:none"
             d="m 0,0 v -1.32 c 0,0 2.395,0.082 2.395,-2.643 V -17.92 h 8.753 v 10.322 l 14.782,0.084 c 0,0 8.341,-0.412 8.341,-4.707 0,0 0.495,-2.972 -2.148,-5.615 h 9.745 c 0,0 2.643,4.953 -0.413,11.395 0,0 -2.642,4.543 -10.983,6.029 0,0 -3.22,0.494 -3.551,0.494 z" /></g><g
           transform="translate(17.0938,33.1953)"
           id="g896"><path
             id="path898"
             style="fill:#96161a;fill-opacity:1;fill-rule:nonzero;stroke:none"
             d="m 0,0 h 8.754 v -0.742 h 16.35 c 0,0 2.974,0.084 4.625,0.826 h 9.745 c 0,0 -1.075,-3.055 -6.607,-5.121 0,0 3.551,-1.404 5.78,-3.633 H -0.165 Z" /></g><g
           transform="translate(16.9287,24.5254)"
           id="g900"><path
             id="path902"
             style="fill:#96161a;fill-opacity:1;fill-rule:nonzero;stroke:none"
             d="m 0,0 v -17.168 c 0,0 0.249,-1.816 -1.815,-1.816 v -1.518 h 30.14 c 0,0 9.909,0.197 13.047,8.703 0,0 1.653,7.586 -2.559,11.799 l -9.399,0.201 c 0,0 5.93,-1.43 2.957,-9.027 0,0 -1.155,-3.137 -6.44,-3.137 H 9.001 V 0 Z" /></g><g
           transform="translate(69.2031,33.2793)"
           id="g904"><path
             id="path906"
             style="fill:#96161a;fill-opacity:1;fill-rule:nonzero;stroke:none"
             d="m 0,0 c 0,0 -4.047,-4.199 -4.047,-8.754 h 6.524 c 0,0 2.808,8.244 11.066,8.244 0,0 9,-0.385 10.817,-8.244 h 6.689 c 0,0 -0.998,5.457 -4.293,8.754 z" /></g><g
           transform="translate(69.2031,33.2793)"
           id="g908"><path
             id="path910"
             style="fill:#96161a;fill-opacity:1;fill-rule:nonzero;stroke:none"
             d="M 0,0 C 0,0 4.955,5.187 13.873,5.187 22.213,5.187 26.095,0.729 26.756,0 Z" /></g><g
           transform="translate(65.1563,24.5254)"
           id="g912"><path
             id="path914"
             style="fill:#96161a;fill-opacity:1;fill-rule:nonzero;stroke:none"
             d="m 0,0 h 6.523 c 0,0 -3.054,-14.215 10.654,-15.701 0,0 12.965,0.426 11.23,15.701 h 6.689 c 0,0 3.551,-21.07 -17.672,-21.07 0,0 -19.24,-1.391 -17.424,21.07" /></g><g
           transform="translate(106.5293,39.873)"
           id="g916"><path
             id="path918"
             style="fill:#96161a;fill-opacity:1;fill-rule:nonzero;stroke:none"
             d="m 0,0 h -1.404 l 0.166,-6.236 h 29.15 v 6.402 h -0.991 c 0,0 0.33,-1.982 -1.569,-1.982 H 1.238 c 0,0 -1.238,0 -1.238,1.816" /></g><g
           transform="translate(105.291,33.6367)"
           id="g920"><path
             id="path922"
             style="fill:#96161a;fill-opacity:1;fill-rule:nonzero;stroke:none"
             d="m 0,0 v -2.682 h 0.99 c 0,0 -0.083,1.321 2.973,1.321 h 7.433 v -7.75 h 6.358 v 7.834 h 8.341 c 0,0 1.981,0.246 1.981,-1.241 H 29.15 V 0 Z" /></g><g
           transform="translate(116.6865,24.5254)"
           id="g924"><path
             id="path926"
             style="fill:#96161a;fill-opacity:1;fill-rule:nonzero;stroke:none"
             d="m 0,0 v -19.088 c 0,0 0.33,-0.701 -0.702,-0.701 v -0.867 h 8.217 v 1.156 c 0,0 -1.403,-0.448 -1.403,1.864 C 6.112,-15.323 6.358,0 6.358,0 Z" /></g><g
           transform="translate(142.2871,32.7715)"
           id="g928"><path
             id="path930"
             style="fill:#96161a;fill-opacity:1;fill-rule:nonzero;stroke:none"
             d="m 0,0 c 0,0 4.789,6.357 12.469,5.697 0,0 4.625,0.496 11.148,-3.054 0,0 1.363,-1.528 2.891,0 L 27.334,1.816 26.549,0.289 Z" /></g><g
           transform="translate(142.2871,32.7715)"
           id="g932"><path
             id="path934"
             style="fill:#96161a;fill-opacity:1;fill-rule:nonzero;stroke:none"
             d="m 0,0 -0.785,-1.857 h 6.359 c 0,0 8.34,4.625 17.094,-1.735 l 0.413,-1.734 h 1.156 l 2.312,5.615 z" /></g><g
           transform="translate(141.502,30.9141)"
           id="g936"><path
             id="path938"
             style="fill:#96161a;fill-opacity:1;fill-rule:nonzero;stroke:none"
             d="m 0,0 c 0,0 -3.344,-10.033 7.639,-12.098 l 9.579,-1.818 c 0,0 5.615,-0.742 3.964,-4.953 0,0 -1.817,-4.625 -11.066,-2.643 0,0 -6.11,1.073 -7.266,3.633 l -0.496,2.561 H 1.197 l -2.807,-8.176 0.825,-0.826 1.322,0.33 c 0,0 7.02,-4.377 16.929,-3.221 0,0 9.661,0.248 10.405,10.406 0,0 0.99,8.506 -11.478,9.993 0,0 -7.764,0.66 -9.829,2.724 0,0 -0.949,1.445 -0.205,4.088 z" /></g><g
           transform="translate(177.7207,32.7656)"
           id="g940"><path
             id="path942"
             style="fill:#96161a;fill-opacity:1;fill-rule:nonzero;stroke:none"
             d="m 0,0 -1.494,3.309 c 0,0 -0.494,0.414 -0.99,0.414 v 1.65 H 5.691 V 3.887 c 0,0 -1.57,-0.66 -0.248,-3.633 z" /></g><g
           transform="translate(195.2207,38.0566)"
           id="g944"><path
             id="path946"
             style="fill:#96161a;fill-opacity:1;fill-rule:nonzero;stroke:none"
             d="m 0,0 v -1.32 c 0,0 1.486,0.082 0.412,-3.469 H 9 l -0.824,2.643 c 0,0 -0.578,0.742 1.32,0.742 v 1.486 z" /></g><g
           transform="translate(216.3613,38.0566)"
           id="g948"><path
             id="path950"
             style="fill:#96161a;fill-opacity:1;fill-rule:nonzero;stroke:none"
             d="m 0,0 v -1.32 c 0,0 1.898,0.494 0.578,-3.469 h 5.615 l 1.075,2.643 c 0,0 0.248,1.031 1.031,1.031 v 1.197 z" /></g><g
           transform="translate(177.5879,33.0596)"
           id="g952"><path
             id="path954"
             style="fill:#96161a;fill-opacity:1;fill-rule:nonzero;stroke:none"
             d="M 0,0 1.449,-5.614 H 7.395 L 5.576,-0.04 Z" /></g><g
           transform="translate(195.6328,33.2676)"
           id="g956"><path
             id="path958"
             style="fill:#96161a;fill-opacity:1;fill-rule:nonzero;stroke:none"
             d="M 0,0 -1.566,-5.822 H 3.801 L 4.202,-4.2 4.627,-5.947 10.408,-6.111 8.588,0 Z" /></g><g
           transform="translate(216.9395,33.2676)"
           id="g960"><path
             id="path962"
             style="fill:#96161a;fill-opacity:1;fill-rule:nonzero;stroke:none"
             d="M 0,0 -1.898,-5.699 H 3.801 L 5.615,0 Z" /></g><g
           transform="translate(179.0371,27.4453)"
           id="g964"><path
             id="path966"
             style="fill:#96161a;fill-opacity:1;fill-rule:nonzero;stroke:none"
             d="m 0,0 6.936,-21.76 c 0,0 0.001,-0.785 -0.784,-0.785 v -1.279 h 8.133 v 1.156 c 0,0 -1.65,-0.082 -0.824,1.816 L 20.396,0 H 15.029 L 10.404,-14.492 5.945,0 Z" /></g><g
           transform="translate(200.2598,27.3203)"
           id="g968"><path
             id="path970"
             style="fill:#96161a;fill-opacity:1;fill-rule:nonzero;stroke:none"
             d="m 0,0 6.027,-20.975 c 0,0 0.539,-1.115 -0.66,-1.486 v -1.156 h 9.332 v 1.156 c 0,0 -1.486,0.166 -0.99,1.9 L 20.48,0.248 H 14.781 L 10.24,-14.285 5.781,-0.164 Z" /></g><g
           transform="translate(239.4785,38.1387)"
           id="g972"><path
             id="path974"
             style="fill:#96161a;fill-opacity:1;fill-rule:nonzero;stroke:none"
             d="m 0,0 v -1.65 c 0,0 0.99,-0.496 0.496,-1.487 L -0.33,-5.367 H 10.488 L 9.58,-2.973 c 0,0 -0.66,1.487 0.412,1.487 v 1.404 z" /></g><g
           transform="translate(239.1484,32.7715)"
           id="g976"><path
             id="path978"
             style="fill:#96161a;fill-opacity:1;fill-rule:nonzero;stroke:none"
             d="m 0,0 h 10.818 l 2.147,-5.203 H 6.359 L 4.955,-1.486 3.717,-5.203 h -5.863 z" /></g><g
           transform="translate(252.1133,27.5684)"
           id="g980"><path
             id="path982"
             style="fill:#96161a;fill-opacity:1;fill-rule:nonzero;stroke:none"
             d="m 0,0 8.836,-21.717 c 0,0 0.002,-0.951 0.951,-0.951 v -1.197 H 1.074 v 1.074 c 0,0 1.239,0.084 0.826,1.652 l -2.394,6.028 h -14.205 l -2.643,-5.946 c 0,0 -0.99,-1.445 1.446,-1.445 v -1.115 h -9.043 v 1.074 c 0,0 1.238,0.164 1.982,1.981 L -15.111,0 h 5.863 l -3.881,-9.496 H -2.643 L -6.605,0 Z" /></g><g
           transform="translate(268.7031,37.9746)"
           id="g984"><path
             id="path986"
             style="fill:#96161a;fill-opacity:1;fill-rule:nonzero;stroke:none"
             d="m 0,0 v -1.322 c 0,0 1.322,0.166 1.322,-0.412 v -2.973 h 10.489 l -2.643,2.643 c 0,0 -0.248,0.701 0.701,0.701 V 0 Z" /></g><g
           transform="translate(295.707,32.7715)"
           id="g988"><path
             id="path990"
             style="fill:#96161a;fill-opacity:1;fill-rule:nonzero;stroke:none"
             d="m 0,0 -0.082,3.303 c 0,0 -0.166,0.867 -0.867,0.867 V 5.367 H 6.77 V 3.965 c 0,0 -1.321,0.164 -1.321,-0.578 L 5.531,0.082 Z" /></g><g
           transform="translate(270.0254,33.2676)"
           id="g992"><path
             id="path994"
             style="fill:#96161a;fill-opacity:1;fill-rule:nonzero;stroke:none"
             d="m 0,0 v -5.699 h 5.367 v 1.404 c 0,0 0.166,0.412 1.156,-0.578 L 7.666,-6.43 15.441,-6.111 10.488,0 Z" /></g><g
           transform="translate(295.707,32.7715)"
           id="g996"><path
             id="path998"
             style="fill:#96161a;fill-opacity:1;fill-rule:nonzero;stroke:none"
             d="M 0,0 0.164,-5.615 H 5.697 L 5.531,0.082 Z" /></g><g
           transform="translate(270.0254,27.8721)"
           id="g1000"><path
             id="path1002"
             style="fill:#96161a;fill-opacity:1;fill-rule:nonzero;stroke:none"
             d="m 0,0 v -21.223 c 0,0 0.328,-1.872 -1.158,-1.872 v -0.99 h 8.176 v 1.238 c 0,0 -1.487,-0.496 -1.487,1.487 L 5.367,-0.304 Z" /></g><g
           transform="translate(285.4668,27.1563)"
           id="g1004"><path
             id="path1006"
             style="fill:#96161a;fill-opacity:1;fill-rule:nonzero;stroke:none"
             d="M 0,0 H -8.094 L 8.588,-20.893 c 0,0 0.578,-1.322 0,-1.322 v -1.072 h 8.34 v 1.238 h -0.99 V -20.562 0 h -5.534 v -12.801 z" /></g><g
           transform="translate(325.5,51.1641)"
           id="g1008"><path
             id="path1010"
             style="fill:#96161a;fill-opacity:1;fill-rule:nonzero;stroke:none"
             d="m 0,0 v -2.334 c 0,0 1.668,1.666 -1.666,-7.334 l -3.447,-8.865 7.759,0.101 L 6,-8.334 9.928,-18.129 18.666,-17.926 13,-4.334 c 0,0 -1.5,4.5 0,3 V 0 Z" /></g><g
           transform="translate(316.7187,23.5234)"
           id="g1012"><path
             id="path1014"
             style="fill:#96161a;fill-opacity:1;fill-rule:nonzero;stroke:none"
             d="M 0,0 H 8 L 11.428,9.209 3.668,9.107 Z" /></g><g
           transform="translate(335.4277,33.0352)"
           id="g1016"><path
             id="path1018"
             style="fill:#96161a;fill-opacity:1;fill-rule:nonzero;stroke:none"
             d="m 0,0 3.742,-9.203 h 8.901 L 8.738,0.203 Z" /></g><g
           transform="translate(316.7187,23.5234)"
           id="g1020"><path
             id="path1022"
             style="fill:#96161a;fill-opacity:1;fill-rule:nonzero;stroke:none"
             d="m 0,0 31.352,0.309 7.181,-17.295 c 0,0 0.707,-1.266 1.264,-1.266 v -1.668 h -12.49 v 1.518 c 0,0 1.668,0 1.668,1.668 l -3.288,8.951 H 5.359 L 1.92,-16.684 c 0,0 -0.404,-1.568 1.568,-1.568 V -19.92 H -8.195 v 1.518 c 0,0 0.912,-0.203 3.439,5.664 z" /></g><g
           transform="translate(179.3047,67.5508)"
           id="g1024"><path
             id="path1026"
             style="fill:#96161a;fill-opacity:1;fill-rule:nonzero;stroke:none"
             d="m 0,0 c 0,0 -2.668,0.666 -4.375,-3.75 h -2.584 c 0,0 2.125,4.916 7.042,4.75 0,0 2.958,-0.166 3.667,-4.75 H 1.625 c 0,0 0.457,3.334 -1.625,3.75" /></g><g
           transform="translate(172.3457,63.8008)"
           id="g1028"><path
             id="path1030"
             style="fill:#96161a;fill-opacity:1;fill-rule:nonzero;stroke:none"
             d="m 0,0 h 2.584 c 0,0 -1.625,-3.375 -1.625,-5.5 h -2.292 c 0,0 0.431,3.979 1.333,5.5" /></g><g
           transform="translate(180.9297,63.8008)"
           id="g1032"><path
             id="path1034"
             style="fill:#96161a;fill-opacity:1;fill-rule:nonzero;stroke:none"
             d="m 0,0 c 0,0 -0.25,-3 -1.417,-5.625 h 2.75 c 0,0 0.999,3.5 0.792,5.625 z" /></g><g
           transform="translate(171.0127,58.3008)"
           id="g1036"><path
             id="path1038"
             style="fill:#96161a;fill-opacity:1;fill-rule:nonzero;stroke:none"
             d="m 0,0 h 2.292 c 0,0 -0.584,-3.959 2,-3.959 0,0 1.666,-0.707 4.208,3.834 h 2.75 c 0,0 -2.708,-5.377 -7.5,-4.584 0,0 -3.417,0.084 -3.75,4.709" /></g><g
           transform="translate(188.7637,63.8008)"
           id="g1040"><path
             id="path1042"
             style="fill:#96161a;fill-opacity:1;fill-rule:nonzero;stroke:none"
             d="M 0,0 0.75,3.041 H -2.5 V 4.25 h 3.625 c 0,0 1.123,5.166 3.416,6.957 0,0 3.875,3.75 7.584,1.209 0,0 1.666,-2.416 -0.793,-3.084 0,0 -1.873,-0.459 -1.394,1.397 0,0 0.062,0.771 0.519,1.228 0,0 -0.801,2.111 -4.334,-0.666 0,0 -1.582,-1.332 -2.291,-6.041 L 3.666,4.457 h 3 V 3.375 H 3.123 L 2.207,0 Z" /></g><g
           transform="translate(188.7637,63.8008)"
           id="g1044"><path
             id="path1046"
             style="fill:#96161a;fill-opacity:1;fill-rule:nonzero;stroke:none"
             d="M 0,0 -1.584,-5.625 0.623,-5.668 2.207,0 Z" /></g><g
           transform="translate(187.1797,58.1758)"
           id="g1048"><path
             id="path1050"
             style="fill:#96161a;fill-opacity:1;fill-rule:nonzero;stroke:none"
             d="m 0,0 c 0,0 -1.834,-8.5 -3.959,-11.043 0,0 -2.209,-3.832 -4.375,-0.457 v 0.457 c 0,0 0.75,-0.291 0.75,0.5 0,0 0.459,2.043 -2.166,1.293 0,0 -1.917,-0.709 -0.292,-2.834 0,0 1.625,-2.75 5.25,-1.166 0,0 3.614,0.998 5.917,9.207 l 1.082,4 z" /></g><g
           transform="translate(48.6016,70.4502)"
           id="g1052"><path
             id="path1054"
             style="fill:#981f22;fill-opacity:1;fill-rule:nonzero;stroke:#000000;stroke-width:0.5;stroke-linecap:butt;stroke-linejoin:miter;stroke-miterlimit:4;stroke-dasharray:none;stroke-opacity:1"
             d="M 0,0 H 120.79" /></g><g
           transform="translate(207.6016,68.4502)"
           id="g1056"><path
             id="path1058"
             style="fill:#981f22;fill-opacity:1;fill-rule:nonzero;stroke:#000000;stroke-width:0.5;stroke-linecap:butt;stroke-linejoin:miter;stroke-miterlimit:4;stroke-dasharray:none;stroke-opacity:1"
             d="M 0,0 H 120.79" /></g></g></g></g></svg>